<svg width="1179" height="700" viewBox="0 0 1179 700" fill="none" xmlns="http://www.w3.org/2000/svg">
<circle cx="589.219" cy="341.219" r="330" transform="rotate(149.746 589.219 341.219)" fill="#FBCE51"/>
<g style="mix-blend-mode:overlay">
<path d="M649.32 652.386L649.165 651.493L650.885 650.914L649.137 641.74L648.064 644.308L643.986 651.727L644.038 652.216L645.674 652.161L645.829 653.055L640.77 654.048L640.615 653.154L642.065 652.644L639.956 641.193L638.404 641.299L638.25 640.405L643.393 639.462L643.548 640.356L642.013 640.816L643.796 650.125L644.767 647.726L648.946 640.138L648.776 639.463L647.004 639.553L646.85 638.659L651.993 637.716L652.148 638.61L650.614 639.07L652.723 650.52L654.224 650.499L654.379 651.393L649.32 652.386Z" fill="black"/>
<path d="M636.957 654.295C636.367 654.516 635.963 654.619 635.558 654.721C635.153 654.824 634.749 654.926 634.394 654.944C632.877 655.185 631.645 655.138 630.749 654.718C629.854 654.299 629.329 653.643 629.19 652.53C629.086 651.551 629.236 650.724 629.774 650.014C630.312 649.303 631.053 648.829 631.912 648.539C630.799 648.678 629.887 648.478 629.127 648.025C628.416 647.487 628.026 646.796 627.872 645.902C627.665 644.519 627.916 643.523 628.639 642.694C629.362 641.865 630.592 641.338 632.38 641.03C633.139 640.909 633.847 640.873 634.37 640.956C634.944 640.955 635.467 641.037 635.771 641.104C636.075 641.171 636.295 641.187 636.379 641.237L636.49 644.51L635.596 644.665L634.712 642.305C634.07 642.037 633.277 642.022 632.164 642.161C631.32 642.231 630.764 642.587 630.412 643.178C630.059 643.77 629.96 644.513 630.064 645.491C630.184 646.25 630.49 646.89 631.031 647.327C631.573 647.764 632.4 647.914 633.513 647.775L634.761 647.603L634.95 648.632L633.836 648.77C633.347 648.822 632.892 649.009 632.387 649.281C631.966 649.602 631.63 649.975 631.378 650.397C631.21 650.87 631.077 651.478 631.163 652.102C631.233 652.945 631.589 653.501 632.096 653.803C632.603 654.106 633.262 654.154 634.105 654.084C634.645 653.948 635.134 653.896 635.504 653.658C635.875 653.421 636.11 653.218 636.211 653.049L636.341 651.294L637.505 651.071L638.087 653.938C637.952 653.972 637.547 654.074 636.957 654.295Z" fill="black"/>
<path d="M620.813 655.439L622.349 655.553L622.453 656.531L619.923 656.741C619.518 656.844 618.944 656.845 618.32 656.931C617.696 657.018 617.291 657.12 617.022 657.188C615.335 657.328 614.069 657.146 613.308 656.693C612.548 656.24 612.073 655.499 612.019 654.436C611.949 653.592 612.099 652.765 612.586 652.139C612.989 651.463 613.73 650.989 614.54 650.784C613.342 650.872 612.38 650.756 611.669 650.219C610.959 649.681 610.485 648.94 610.431 647.877C610.258 646.629 610.644 645.598 611.502 644.735C612.36 643.872 613.725 643.311 615.766 643.154C616.255 643.101 616.609 643.084 617.048 643.116C617.976 643.096 618.6 643.01 618.819 643.027L621.265 642.766L621.285 643.694L619.717 644.019L620.813 655.439ZM615.836 643.997C614.588 644.169 613.728 644.459 613.156 645.034C612.584 645.609 612.485 646.352 612.504 647.28C612.609 648.258 612.914 648.899 613.455 649.336C613.997 649.773 614.824 649.922 615.937 649.784C617.185 649.612 617.978 649.626 618.383 649.524L617.911 643.974C617.523 643.857 616.899 643.943 615.836 643.997ZM617.323 650.725L616.345 650.829C615.502 650.899 614.861 651.205 614.424 651.746C613.987 652.287 613.803 652.979 613.958 653.873C614.028 654.717 614.334 655.357 614.79 655.744C615.247 656.131 616.074 656.28 617.187 656.142C617.677 656.09 618.081 655.987 618.57 655.935L618.975 655.833L618.521 650.637C618.251 650.705 617.897 650.723 617.323 650.725Z" fill="black"/>
<path d="M604.706 657.866L602.665 658.024L597.515 645.333L596.334 645.202L596.314 644.274L601.274 644.023L601.294 644.951L599.776 645.192L600.762 647.956L606.212 647.653L606.946 644.884L605.326 644.72L605.306 643.792L609.777 643.593L609.796 644.521L608.633 644.744L604.706 657.866ZM603.466 654.95L604.01 656.535L604.36 654.796L605.911 648.734L601.17 649.001L603.466 654.95Z" fill="black"/>
<path d="M593.178 644.924C594.192 645.528 594.886 646.286 595.378 647.381C595.871 648.476 596.178 649.69 596.115 651.142C596.102 652.508 595.836 653.724 595.265 654.873C594.695 656.022 593.887 656.801 592.877 657.343C591.866 657.886 590.736 658.244 589.454 658.281C588.526 658.301 587.345 658.17 586.044 657.853L585.437 657.72L585.595 654.378L586.878 654.341L587.408 656.718C587.577 656.819 587.915 657.02 588.303 657.137C588.692 657.254 589.265 657.253 589.924 657.301C590.717 657.316 591.441 657.061 592.048 656.62C592.654 656.18 593.192 655.47 593.476 654.608C593.76 653.747 593.976 652.616 593.973 651.468C593.97 650.321 593.831 649.208 593.457 648.298C593.084 647.388 592.659 646.562 592.034 646.075C591.408 645.587 590.597 645.218 589.669 645.238C589.011 645.189 588.471 645.326 588.201 645.394C587.932 645.462 587.561 645.7 587.326 645.903L586.572 647.744L585.39 647.613L585.804 644.996C586.024 645.012 586.428 644.91 586.968 644.773C587.423 644.586 587.828 644.484 588.317 644.432C588.721 644.33 589.295 644.328 589.869 644.326C591.032 644.103 592.163 644.319 593.178 644.924Z" fill="black"/>
<path d="M575.659 655.099C575.021 655.978 574.213 656.757 573.387 657.181C572.427 657.639 571.483 657.878 570.521 657.763C569.289 657.716 568.259 657.331 567.464 656.743C566.669 656.155 566.025 655.313 565.617 654.268C565.209 653.223 564.987 652.059 565.134 650.658C565.248 649.123 565.565 647.822 566.085 646.758C566.655 645.609 567.463 644.83 568.389 644.237C569.315 643.644 570.344 643.455 571.491 643.452C572.723 643.499 573.804 643.799 574.683 644.438C575.562 645.077 576.122 645.868 576.58 646.829C576.988 647.873 577.211 649.037 577.063 650.438L580.05 650.615L580.321 645.164L578.751 644.915L578.816 644.038L583.963 644.242L583.898 645.12L582.346 645.226L581.84 656.836L583.275 657.118L583.21 657.996L578.198 657.758L578.263 656.88L579.815 656.774L580.053 651.762L577.016 651.67C576.649 653.055 576.213 654.169 575.659 655.099ZM573.433 655.376C574.172 654.327 574.59 652.858 574.702 650.749C574.747 648.943 574.506 647.425 573.879 646.364C573.252 645.303 572.372 644.664 571.056 644.567C569.824 644.52 568.948 645.029 568.259 645.992C567.57 646.956 567.187 648.56 567.075 650.67C567.029 652.475 567.186 653.943 567.813 655.004C568.39 656.15 569.32 656.704 570.467 656.7C571.733 656.882 572.694 656.424 573.433 655.376Z" fill="black"/>
<path d="M555.409 648.527C555.019 647.836 554.426 646.91 553.849 645.764C553.425 644.939 553.203 644.349 552.966 643.978C552.729 643.608 552.526 643.372 552.357 643.271L551.715 643.003L551.78 642.126L554.058 642.338C554.362 642.405 554.65 642.691 554.921 643.196C555.193 643.702 555.617 644.527 556.025 645.572C556.552 646.803 556.976 647.628 557.366 648.319C557.671 648.959 558.044 649.295 558.482 649.328L559.664 649.459L560.188 644.16L558.584 643.776L558.649 642.899L563.73 643.407L563.614 644.369L562.113 644.39L560.948 655.952L562.418 656.369L562.302 657.331L557.357 656.789L557.573 655.658L559.125 655.552L559.7 650.168L558.079 650.004L553.741 654.977L555.26 655.31L555.145 656.272L550.588 655.847L550.703 654.885L552.205 654.864L556.813 649.822C556.34 649.655 555.85 649.133 555.409 648.527Z" fill="black"/>
<path d="M548.507 642.237C549.336 642.96 549.844 643.836 550.067 644.999C550.34 646.078 550.378 647.36 550.23 648.761C550.082 650.162 549.596 651.362 548.857 652.41C548.168 653.374 547.276 654.102 546.316 654.56C545.271 654.968 544.242 655.157 542.976 654.975C541.052 654.744 539.615 653.888 538.835 652.507C538.055 651.125 537.695 649.422 538.077 647.245C538.275 645.759 538.761 644.56 539.45 643.596C540.189 642.548 541.031 641.904 542.042 641.361C543.087 640.953 544.2 640.815 545.381 640.946C546.647 641.128 547.678 641.513 548.507 642.237ZM546.311 652.839C547.134 651.841 547.721 650.473 548.052 648.38C548.367 646.506 548.211 645.038 547.685 643.808C547.158 642.578 546.279 641.939 545.097 641.808C543.916 641.676 542.921 642 542.097 642.998C541.273 643.996 540.636 645.449 540.355 647.457C540.04 649.331 540.196 650.799 540.774 651.944C541.266 653.04 542.095 653.763 543.361 653.945C544.442 654.245 545.487 653.837 546.311 652.839Z" fill="black"/>
<path d="M533.873 652.184L535.292 652.686L535.092 653.598L532.61 653.149C532.222 653.032 531.648 653.034 531.04 652.901C530.382 652.852 529.994 652.735 529.774 652.719C528.12 652.42 526.921 651.934 526.311 651.227C525.702 650.52 525.497 649.711 525.662 648.665C525.812 647.837 526.265 647.077 526.787 646.586C527.308 646.095 528.168 645.806 529.096 645.786C527.965 645.57 527.069 645.151 526.46 644.444C525.85 643.737 525.696 642.843 525.896 641.931C526.162 640.716 526.716 639.786 527.778 639.159C528.839 638.531 530.306 638.375 532.349 638.791C532.788 638.824 533.176 638.941 533.649 639.108C534.561 639.308 535.169 639.441 535.338 639.542L537.819 639.99L537.62 640.902L536.084 640.788L533.873 652.184ZM532.183 639.838C530.968 639.571 529.989 639.675 529.383 640.116C528.693 640.506 528.29 641.182 528.174 642.144C527.974 643.056 528.095 643.815 528.501 644.286C528.907 644.757 529.668 645.211 530.715 645.376C531.93 645.643 532.758 645.792 533.112 645.774L534.176 640.338C533.838 640.137 533.23 640.003 532.183 639.838ZM531.849 646.74L530.803 646.574C529.975 646.425 529.216 646.545 528.745 646.951C528.274 647.358 527.871 648.034 527.722 648.861C527.572 649.688 527.608 650.397 528.014 650.868C528.421 651.339 529.097 651.742 530.143 651.908C530.582 651.94 531.055 652.108 531.544 652.056L531.983 652.088L532.98 646.956C532.676 646.889 532.373 646.823 531.849 646.74Z" fill="black"/>
<path d="M504.886 646.819L505.086 645.907L506.706 646.071L509.525 634.808L507.852 634.155L508.052 633.243L513.118 634.545L512.918 635.456L511.348 635.208L508.479 646.555L514.237 648.04L517.106 636.693L515.518 636.09L515.718 635.178L520.784 636.48L520.584 637.391L519.099 637.193L516.28 648.456L517.733 649.093L517.533 650.004L504.886 646.819Z" fill="black"/>
<path d="M504.238 632.917C504.882 633.759 505.34 634.719 505.428 635.917C505.566 637.03 505.384 638.296 505.017 639.681C504.565 641.015 503.995 642.164 503.137 643.027C502.279 643.89 501.353 644.484 500.274 644.757C499.195 645.03 498.047 645.033 496.966 644.733C495.109 644.198 493.908 643.139 493.262 641.723C492.667 640.223 492.662 638.502 493.264 636.341C493.631 634.956 494.336 633.773 495.194 632.91C496.052 632.047 497.029 631.369 498.108 631.096C499.187 630.823 500.334 630.819 501.499 631.17C502.665 631.521 503.594 632.075 504.238 632.917ZM500.573 643.102C501.515 642.29 502.321 640.937 502.906 638.995C503.39 637.222 503.504 635.686 503.196 634.472C502.889 633.258 502.111 632.451 500.945 632.1C499.78 631.749 498.701 632.022 497.758 632.835C496.816 633.647 495.96 635.084 495.375 637.026C494.84 638.884 494.692 640.285 495.084 641.549C495.391 642.763 496.17 643.571 497.335 643.922C498.517 644.053 499.546 643.865 500.573 643.102Z" fill="black"/>
<path d="M488.258 632.441C489.08 630.869 489.819 629.821 490.661 629.177C491.082 628.855 491.452 628.618 491.857 628.516C492.262 628.413 492.7 628.446 493.089 628.563C493.646 628.78 494.035 628.897 494.288 629.049L493.871 630.518C493.617 630.367 493.144 630.199 492.587 629.982C492.418 629.881 492.198 629.865 491.929 629.933C491.659 630.001 491.474 630.12 491.288 630.238C489.84 631.323 488.448 634.043 486.942 638.3L486.44 639.718L488.4 640.658L488.115 641.519L477.88 637.938L478.164 637.077L479.903 637.426L483.803 626.464L482.096 625.676L482.38 624.814L487.752 626.756L487.467 627.617L485.559 627.167L481.66 638.129L485.274 639.368L485.877 637.78C486.732 635.769 487.486 633.928 488.258 632.441Z" fill="black"/>
<path d="M475.005 635.652L476.357 636.458L475.988 637.269L467.119 633.701L467.988 630.897L469.019 631.282L468.839 633.122L473.113 634.982L475.107 630.1L472.235 628.961L471.429 630.313L470.483 629.979L472.057 625.992L473.003 626.327L472.62 627.931L475.441 629.154L477.501 623.968L472.519 622.144L470.752 623.954L469.839 623.181L471.551 620.307L481.147 624.194L480.778 625.005L479.309 624.587L475.005 635.652Z" fill="black"/>
<path d="M460.612 629.822L463.568 631.011L465.752 627.731L466.817 628.251L464.501 632.713L453.874 627.867L455.716 623.239L456.781 623.759L455.746 627.609L458.686 629.018L463.497 618.255L461.165 616.98L461.534 616.169L468.022 619.119L467.653 619.93L465.373 619.144L460.612 629.822Z" fill="black"/>
<path d="M450.283 617.366L451.094 617.735C451.448 617.717 451.954 617.446 452.425 617.039C452.896 616.633 453.637 616.158 454.344 615.549C455.051 614.939 455.657 614.499 456.078 614.177C456.499 613.855 456.769 613.787 456.938 613.888L459.236 615.028L458.867 615.839L458.124 615.74C457.905 615.724 457.685 615.708 457.315 615.945C456.995 616.098 456.439 616.454 455.833 616.894C455.041 617.453 454.435 617.894 453.93 618.165C453.374 618.521 452.969 618.624 452.48 618.676C453.14 619.298 453.53 619.989 453.651 620.748C453.771 621.507 453.622 622.334 453.202 623.229C452.531 624.547 451.639 625.276 450.661 625.38C449.598 625.433 448.382 625.167 446.895 624.395C446.557 624.194 446.219 623.992 445.712 623.69C445.205 623.388 444.782 623.136 444.529 622.985L442.146 621.794L442.515 620.983L444.018 621.535L449.286 611.16L447.815 610.168L448.184 609.357L453.118 611.84L452.75 612.651L451.077 611.998L448.897 616.425L450.283 617.366ZM446.081 622.879C446.588 623.181 447.01 623.433 447.348 623.635C448.244 624.054 448.936 624.237 449.611 624.067C450.285 623.896 450.807 623.405 451.276 622.425C451.696 621.53 451.845 620.702 451.59 619.978C451.335 619.253 450.844 618.731 449.999 618.227C449.103 617.808 448.512 617.456 448.208 617.389L445.624 622.492L446.081 622.879Z" fill="black"/>
<path d="M436.532 617.76L439.422 619.254L441.859 616.125L442.958 616.78L440.22 620.989L430.097 615.299L432.327 610.787L433.342 611.392L431.918 615.125L434.707 616.787L440.414 606.444L438.182 605L438.636 604.239L444.906 607.747L444.453 608.508L442.189 607.502L436.532 617.76Z" fill="black"/>
<path d="M429.24 599.441C429.783 600.452 429.921 601.565 429.79 602.746C429.658 603.928 429.173 605.127 428.417 606.395C427.712 607.578 426.719 608.475 425.708 609.018C424.647 609.646 423.483 609.868 422.336 609.872C421.104 609.825 420.074 609.44 418.975 608.785C418.13 608.281 417.301 607.558 416.269 606.599L415.812 606.212L417.778 603.49L418.877 604.145L418.006 606.375C418.074 606.644 418.278 606.88 418.565 607.166C418.853 607.452 419.31 607.839 419.817 608.141C420.493 608.544 421.185 608.728 421.978 608.742C422.687 608.706 423.547 608.417 424.253 607.808C425.045 607.248 425.768 606.42 426.372 605.405C426.977 604.391 427.447 603.411 427.697 602.415C427.947 601.419 427.927 600.491 427.722 599.681C427.518 598.872 426.993 598.216 426.147 597.712C425.556 597.359 425.133 597.107 424.745 596.99C424.356 596.873 424.002 596.891 423.732 596.96L422.15 598.078L421.236 597.304L423.019 595.274C423.272 595.425 423.661 595.542 424.134 595.71C424.607 595.877 424.995 595.994 425.383 596.111C425.772 596.228 426.279 596.53 426.786 596.833C427.885 597.487 428.748 598.345 429.24 599.441Z" fill="black"/>
<path d="M409.321 602.114L409.859 601.404L411.515 602.277L416.892 594.601L414.347 595.603L406.187 597.956L405.935 598.378L407.221 599.488L406.683 600.199L402.49 597.241L403.028 596.531L404.346 597.202L410.966 587.632L409.765 586.573L410.303 585.863L414.58 588.87L414.042 589.581L412.555 588.809L407.128 596.57L409.538 595.601L417.917 593.265L418.27 592.673L416.9 591.513L417.438 590.802L421.715 593.81L421.177 594.52L419.775 593.799L413.155 603.369L414.271 604.378L413.733 605.088L409.321 602.114Z" fill="black"/>
<path d="M392.868 590.132L395.725 586.108L396.773 586.847L394.893 590.193L398.056 592.766L405.233 583.414L402.747 581.244L403.285 580.534L409.136 584.938L408.598 585.648L406.823 584.59L399.831 593.823L401.269 595.254L400.731 595.964L392.868 590.132Z" fill="black"/>
<path d="M391.054 587.218L391.986 588.346L391.448 589.056L387.541 585.811L388.079 585.101L389.431 585.907L392.625 582.084L387.551 577.914L384.357 581.737L385.372 582.915L384.835 583.626L381.012 580.431L381.55 579.721L382.817 580.476L390.232 571.495L389.166 570.401L389.704 569.691L393.527 572.886L392.989 573.596L391.687 572.705L388.156 576.9L393.23 581.07L396.761 576.875L395.61 575.731L396.148 575.021L400.14 578.316L399.602 579.027L398.385 578.186L391.054 587.218Z" fill="black"/>
<path d="M375.886 575.772L374.397 574.426L379.743 561.806L379.014 560.914L379.637 560.254L383.274 563.568L382.652 564.228L381.35 563.337L380.143 565.939L384.152 569.589L386.645 568.097L385.545 566.868L386.167 566.208L389.432 569.185L388.81 569.845L387.846 569.156L375.886 575.772ZM376.991 572.765L376.219 574.252L377.701 573.303L383.142 570.132L379.673 566.919L376.991 572.765Z" fill="black"/>
<path d="M372.601 560.528C373.999 559.529 375.195 558.867 376.189 558.544C376.729 558.407 377.083 558.389 377.522 558.422C377.911 558.539 378.249 558.74 378.621 559.076C379.078 559.463 379.315 559.834 379.518 560.069L378.593 561.236C378.39 561.001 378.103 560.715 377.612 560.193C377.493 560.008 377.324 559.907 377.105 559.891C376.885 559.875 376.666 559.858 376.396 559.927C374.693 560.286 372.218 562.132 368.937 565.331L367.843 566.397L369.215 568.131L368.593 568.791L360.994 561.17L361.617 560.51L363.037 561.585L371.281 553.327L370.062 551.913L370.684 551.254L374.796 555.308L374.174 555.968L372.719 554.757L364.526 562.931L367.2 565.555L368.394 564.32C369.74 562.831 371.204 561.528 372.601 560.528Z" fill="black"/>
<path d="M347.436 546.445L348.143 545.836L349.513 546.996L358.163 539.209L357.163 537.812L357.87 537.202L361.493 541.308L360.786 541.918L359.501 540.808L350.851 548.595L351.85 549.993L351.143 550.602L347.436 546.445ZM359.329 551.472C358.314 550.294 357.821 549.199 357.767 548.136C357.714 547.073 358.183 546.093 359.176 545.196C360.219 544.214 361.349 543.857 362.53 543.988C363.712 544.12 364.81 544.775 365.877 545.868C365.995 546.054 366.164 546.154 366.283 546.34C366.402 546.525 366.52 546.71 366.689 546.811C367.13 547.417 367.536 547.888 367.858 548.309L369.568 550.244L368.861 550.854L367.66 549.795L359.01 557.581L359.84 558.878L359.134 559.488L355.545 555.516L356.252 554.907L357.706 556.117L360.921 553.223L359.329 551.472ZM365.966 547.64C365.848 547.454 365.644 547.219 365.272 546.882C364.578 546.125 363.818 545.672 363.025 545.657C362.231 545.643 361.456 545.982 360.564 546.711C359.807 547.405 359.404 548.081 359.389 548.874C359.375 549.667 359.714 550.442 360.409 551.199L361.712 552.663L366.39 548.465C366.288 548.061 366.169 547.875 365.966 547.64Z" fill="black"/>
<path d="M342.875 538.916L343.571 540.247L342.864 540.857L339.764 536.833L340.471 536.224L341.622 537.368L345.646 534.268L341.615 529.117L337.591 532.216L338.287 533.547L337.58 534.157L334.565 530.183L335.272 529.574L336.388 530.583L345.563 523.453L344.817 522.206L345.524 521.597L348.624 525.62L347.917 526.23L346.851 525.136L342.591 528.439L346.622 533.59L350.882 530.287L350.017 528.856L350.724 528.246L353.908 532.32L353.201 532.93L352.135 531.836L342.875 538.916Z" fill="black"/>
<path d="M330.482 524.543L329.33 522.825L337.261 511.632L336.769 510.536L337.51 510.062L340.39 514.069L339.598 514.628L338.583 513.45L336.868 515.75L340.02 520.263L342.818 519.411L342.038 518.03L342.779 517.555L345.338 521.141L344.596 521.616L343.733 520.758L330.482 524.543ZM332.263 521.939L331.238 523.275L332.873 522.646L338.84 520.705L336.129 516.798L332.263 521.939Z" fill="black"/>
<path d="M322.799 510.915L323.631 512.785L322.89 513.26L320.296 508.965L326.081 502.333L327.797 500.607L325.488 501.407L316.99 503.558L314.43 499.398L315.171 498.923L316.458 500.607L325.599 493.342L324.919 491.791L325.66 491.317L328.407 495.932L327.666 496.406L326.616 495.093L319.933 500.158L317.037 502.326L319.734 501.643L329.75 499.252L330.378 500.313L324.324 507.586L321.869 510.361L325.121 508.748L332.72 505.031L331.871 503.38L332.612 502.905L335.172 507.065L334.431 507.54L333.466 506.277L322.799 510.915Z" fill="black"/>
<path d="M310.885 493.047L309.918 491.211L319.135 481.128L318.777 479.998L319.603 479.574L321.927 483.937L321.101 484.361L320.136 483.099L318.084 485.197L320.73 489.981L323.596 489.399L323.001 487.899L323.827 487.475L325.964 491.383L325.139 491.808L324.411 490.915L310.885 493.047ZM313.004 490.645L311.809 491.88L313.512 491.521L319.735 490.305L317.445 486.076L313.004 490.645Z" fill="black"/>
<path d="M307.195 483.288L307.621 484.688L306.795 485.112L305.726 482.871C305.488 482.5 305.301 482.045 305.064 481.675C304.708 481.119 304.402 480.479 304.131 479.973C303.367 478.373 303.11 477.074 303.36 476.078C303.611 475.082 304.368 474.388 305.564 473.726C306.474 473.352 307.334 473.063 308.161 473.212C309.038 473.277 309.849 473.646 310.56 474.184C311.27 474.722 311.829 475.513 312.287 476.474C312.44 476.794 312.593 477.114 312.746 477.434C312.899 477.754 312.967 478.024 313.051 478.074L316.758 476.275L315.789 473.865L316.615 473.441L319.297 478.933L318.471 479.358L317.641 478.061L307.195 483.288ZM311.412 476.982C310.987 476.157 310.327 475.534 309.601 475.216C308.874 474.897 307.761 475.036 306.565 475.697C305.605 476.156 305.033 476.731 304.849 477.423C304.666 478.116 304.82 479.009 305.278 479.97C305.431 480.29 305.669 480.661 305.906 481.031C306.024 481.216 306.143 481.402 306.177 481.536L312.125 478.668C311.972 478.347 311.751 477.757 311.412 476.982Z" fill="black"/>
<path d="M312.342 466.198C312.21 467.379 311.741 468.359 310.883 469.222C310.109 470.136 308.998 470.848 307.717 471.459C306.436 472.07 305.188 472.242 304.007 472.111C302.825 471.979 301.66 471.628 300.747 470.855C299.783 470.166 299.055 469.274 298.528 468.044C298.154 467.134 297.797 466.004 297.54 464.706L297.453 464.082L300.588 462.858L301.081 463.953L299.127 465.308C299.111 465.528 299.045 465.832 299.097 466.321C299.199 466.726 299.336 467.265 299.557 467.855C299.896 468.63 300.387 469.152 301.063 469.555C301.74 469.958 302.567 470.107 303.495 470.088C304.423 470.068 305.502 469.795 306.597 469.302C307.692 468.81 308.568 468.301 309.326 467.607C310.083 466.913 310.621 466.203 310.855 465.426C311.089 464.649 311.019 463.806 310.729 462.946C310.508 462.356 310.186 461.935 309.949 461.565C309.712 461.194 309.458 461.043 309.154 460.976L307.163 461.05L306.806 459.92L309.369 459.272C309.487 459.457 309.725 459.827 310.046 460.248C310.368 460.669 310.656 460.955 310.893 461.326C311.131 461.696 311.317 462.151 311.673 462.707C312.335 463.903 312.558 465.067 312.342 466.198Z" fill="black"/>
<path d="M288.069 440.048L288.929 439.758L289.642 441.444L298.594 438.532L295.959 437.764L288.07 434.665L287.615 434.852L287.89 436.505L287.03 436.794L285.497 431.872L286.357 431.583L287.053 432.913L298.128 429.321L297.803 427.753L298.662 427.463L300.28 432.436L299.42 432.725L298.741 431.175L289.655 434.121L292.12 434.788L300.178 437.988L300.852 437.817L300.493 436.114L301.353 435.824L302.97 440.797L302.111 441.087L301.465 439.671L290.39 443.264L290.631 444.782L289.771 445.071L288.069 440.048Z" fill="black"/>
<path d="M284.592 428.011C284.32 427.505 284.133 427.05 283.896 426.68C283.659 426.309 283.641 425.955 283.488 425.635C283.113 424.151 283.025 422.953 283.275 421.957C283.525 420.961 284.182 420.436 285.261 420.163C286.205 419.924 287.082 419.989 287.843 420.442C288.604 420.895 289.129 421.552 289.553 422.377C289.28 421.298 289.311 420.286 289.764 419.525C290.217 418.765 290.874 418.24 291.734 417.95C292.998 417.558 294.179 417.69 295.059 418.329C295.938 418.967 296.65 420.079 297.178 421.883C297.349 422.557 297.52 423.231 297.521 423.805C297.523 424.379 297.575 424.868 297.593 425.222C297.611 425.577 297.595 425.796 297.544 425.88L294.374 426.396L294.135 425.452L296.291 424.332C296.475 423.639 296.405 422.796 296.081 421.801C295.876 420.992 295.436 420.386 294.878 420.168C294.321 419.95 293.443 419.886 292.499 420.125C291.774 420.38 291.219 420.736 290.781 421.277C290.429 421.869 290.364 422.746 290.687 423.741L291.079 425.005L290.085 425.329L289.811 424.249C289.675 423.71 289.438 423.339 289.116 422.919C288.794 422.498 288.371 422.246 287.898 422.078C287.426 421.911 286.852 421.913 286.177 422.083C285.368 422.288 284.897 422.695 284.595 423.202C284.377 423.759 284.328 424.417 284.533 425.227C284.67 425.766 284.857 426.221 285.144 426.507C285.382 426.878 285.635 427.029 285.854 427.045L287.626 426.956L287.984 428.085L285.27 428.987C285.101 428.886 284.948 428.566 284.592 428.011Z" fill="black"/>
<g filter="url(#filter0_d_31_9)">
<path d="M281.441 412.159L281.546 413.711L280.653 413.865L280.089 411.353C279.986 410.948 279.85 410.409 279.628 409.819C279.407 409.229 279.305 408.824 279.237 408.555C278.877 406.851 278.924 405.62 279.209 404.758C279.578 403.947 280.234 403.422 281.313 403.149C282.207 402.995 283 403.009 283.676 403.412C284.403 403.731 284.928 404.387 285.267 405.162C285.045 403.999 285.075 402.986 285.529 402.226C285.982 401.465 286.639 400.94 287.667 400.751C288.881 400.444 290.012 400.66 290.926 401.434C291.89 402.123 292.585 403.454 293.047 405.561C293.149 405.966 293.201 406.455 293.304 406.86C293.458 407.754 293.545 408.378 293.663 408.563L294.193 410.941L293.299 411.095L292.789 409.645L281.441 412.159ZM285.715 408.063L285.526 407.034C285.321 406.225 285.015 405.585 284.424 405.232C283.832 404.88 283.174 404.831 282.28 404.985C281.471 405.19 280.831 405.496 280.528 406.003C280.226 406.51 280.212 407.303 280.4 408.332C280.503 408.736 280.639 409.276 280.742 409.681L280.844 410.085L285.954 409.007C285.954 409.007 285.851 408.603 285.715 408.063ZM292.238 405.766C291.93 404.552 291.506 403.727 290.88 403.239C290.255 402.752 289.512 402.653 288.568 402.892C287.624 403.131 286.983 403.436 286.715 404.078C286.447 404.72 286.348 405.463 286.621 406.542C286.928 407.756 287.049 408.515 287.151 408.919L292.581 407.689C292.513 407.419 292.426 406.795 292.238 405.766Z" fill="black"/>
</g>
<path d="M277.041 396.48L276.664 394.422L288.54 387.757L288.537 386.609L289.431 386.455L290.306 391.329L289.412 391.483L288.952 389.949L286.34 391.256L287.267 396.619L290.153 396.965L290.098 395.328L290.992 395.174L291.73 399.508L290.836 399.662L290.479 398.533L277.041 396.48ZM279.77 394.785L278.169 395.549L279.924 395.678L286.17 396.538L285.329 391.799L279.77 394.785Z" fill="black"/>
<path d="M288.426 383.336C287.957 384.316 287.183 385.23 286.257 385.823C285.331 386.416 284.016 386.893 282.633 387.099C281.25 387.306 279.984 387.124 278.869 386.688C277.754 386.253 276.79 385.564 276.062 384.672C275.334 383.78 274.892 382.6 274.72 381.352C274.615 380.373 274.612 379.226 274.709 377.91L274.758 377.251L278.132 376.971L278.304 378.22L275.995 379.019C275.894 379.188 275.777 379.577 275.745 380.016C275.712 380.454 275.714 381.028 275.8 381.652C275.921 382.411 276.176 383.136 276.751 383.708C277.327 384.28 278.003 384.683 278.914 384.883C279.826 385.082 280.923 385.164 282.171 384.991C283.284 384.853 284.364 384.58 285.324 384.122C286.284 383.663 286.941 383.138 287.394 382.378C287.932 381.667 288.082 380.84 287.927 379.946C287.841 379.322 287.704 378.783 287.552 378.463C287.399 378.142 287.246 377.822 286.908 377.621L284.966 377.036L284.962 375.888L287.646 375.999C287.714 376.269 287.816 376.673 288.003 377.128C288.19 377.583 288.427 377.954 288.53 378.358C288.632 378.763 288.769 379.303 288.855 379.927C289.027 381.175 288.896 382.356 288.426 383.336Z" fill="black"/>
<path d="M276.163 367.207C275.183 366.738 274.354 366.015 273.795 365.223C273.236 364.432 272.913 363.437 272.859 362.374C272.771 361.177 272.937 360.13 273.491 359.2C274.045 358.271 274.718 357.526 275.678 357.068C276.689 356.525 277.768 356.252 279.1 356.13C280.652 356.024 281.919 356.206 283.084 356.557C284.199 356.993 285.162 357.682 285.806 358.523C286.45 359.365 286.858 360.41 286.996 361.523C287.084 362.721 286.868 363.852 286.398 364.832C285.929 365.812 285.171 366.506 284.161 367.049C283.15 367.592 282.02 367.95 280.688 368.072L280.95 371.091L286.365 370.653L286.444 368.983L287.372 368.963L287.741 374.108L286.814 374.128L286.488 372.56L274.95 373.471L274.836 375.007L273.908 375.026L273.488 369.966L274.416 369.946L274.742 371.514L279.802 371.094L279.54 368.075C278.308 368.028 277.093 367.761 276.163 367.207ZM275.567 365.134C276.665 365.789 278.235 366.037 280.327 365.795C282.149 365.621 283.548 365.195 284.575 364.432C285.602 363.67 286.071 362.69 285.984 361.492C285.896 360.295 285.252 359.453 284.238 358.848C283.224 358.244 281.603 358.08 279.562 358.238C277.74 358.412 276.341 358.838 275.365 359.516C274.338 360.278 273.918 361.173 274.006 362.371C273.959 363.603 274.552 364.529 275.567 365.134Z" fill="black"/>
<path d="M280.169 346.459C280.825 345.934 281.667 345.29 282.779 344.578C283.52 344.104 284.075 343.748 284.496 343.426C284.867 343.189 285.018 342.935 285.119 342.766L285.302 342.074L286.23 342.054L286.321 344.399C286.39 344.669 286.053 345.041 285.632 345.363C285.161 345.769 284.42 346.244 283.409 346.787C282.298 347.499 281.422 348.007 280.816 348.448C280.21 348.888 279.958 349.311 279.976 349.665L279.979 350.813L285.327 350.679L285.542 348.974L286.47 348.955L286.62 354.084L285.692 354.103L285.451 352.585L273.826 352.872L273.628 354.358L272.7 354.377L272.584 349.383L273.512 349.364L273.753 350.881L279.101 350.748L279.046 349.111L273.535 345.483L273.371 347.103L272.443 347.123L272.345 342.483L273.273 342.463L273.564 343.897L279.143 347.795C279.125 347.441 279.563 346.899 280.169 346.459Z" fill="black"/>
<path d="M285.461 338.732C284.823 339.611 283.981 340.255 282.936 340.663C281.891 341.071 280.592 341.328 279.226 341.315C277.774 341.252 276.559 340.985 275.494 340.466C274.43 339.946 273.651 339.138 273.058 338.212C272.465 337.285 272.192 336.206 272.239 334.974C272.25 333.034 272.887 331.581 274.2 330.531C275.462 329.566 277.131 329.071 279.291 329.099C280.743 329.162 282.043 329.479 283.107 329.999C284.172 330.519 285.035 331.377 285.628 332.303C286.221 333.229 286.494 334.308 286.447 335.54C286.4 336.772 286.1 337.853 285.461 338.732ZM274.626 337.886C275.675 338.626 277.194 338.959 279.219 339.02C281.109 339.116 282.593 338.741 283.654 338.113C284.715 337.486 285.32 336.472 285.316 335.324C285.363 334.092 284.77 333.166 283.722 332.427C282.673 331.687 281.069 331.304 279.044 331.242C277.154 331.147 275.671 331.522 274.609 332.15C273.548 332.777 272.994 333.707 272.947 334.939C273.12 336.187 273.662 337.197 274.626 337.886Z" fill="black"/>
<path d="M273.78 325.47L273.447 326.99L272.569 326.925L272.714 324.377C272.746 323.938 272.745 323.364 272.743 322.791C272.741 322.217 272.689 321.728 272.756 321.424C272.886 319.669 273.237 318.503 273.774 317.793C274.312 317.083 275.172 316.794 276.185 316.824C277.062 316.889 277.789 317.208 278.414 317.695C278.99 318.267 279.38 318.958 279.534 319.852C279.581 318.62 279.866 317.758 280.488 317.099C281.11 316.439 281.97 316.149 282.932 316.265C284.164 316.312 285.229 316.832 285.906 317.808C286.634 318.701 286.96 320.269 286.814 322.243C286.781 322.682 286.749 323.121 286.632 323.509C286.516 324.471 286.518 325.045 286.502 325.265L286.408 327.728L285.53 327.663L285.424 326.111L273.78 325.47ZM278.969 322.722L279 321.709C279.065 320.832 278.894 320.157 278.403 319.636C277.997 319.164 277.27 318.846 276.342 318.866C275.465 318.801 274.79 318.971 274.404 319.428C274.017 319.885 273.698 320.611 273.617 321.708C273.585 322.147 273.552 322.586 273.604 323.075L273.622 323.429L278.803 323.768C278.904 323.599 278.886 323.245 278.969 322.722ZM285.801 322.213C285.848 320.981 285.694 320.087 285.169 319.43C284.728 318.824 284.002 318.506 282.989 318.475C282.027 318.36 281.302 318.615 280.916 319.072C280.444 319.478 280.16 320.339 280.079 321.436C280.032 322.668 279.967 323.546 279.985 323.9L285.52 324.221C285.671 323.968 285.72 323.31 285.801 322.213Z" fill="black"/>
<path d="M275.381 296.072L276.343 296.188L276.399 297.824L287.944 299.208L288.378 297.519L289.34 297.635L288.731 302.884L287.769 302.769L287.798 301.182L276.253 299.799L275.545 305.791L287.174 307.225L287.608 305.536L288.57 305.652L287.877 310.851L286.915 310.735L286.894 309.234L275.348 307.85L274.88 309.404L273.918 309.288L275.381 296.072Z" fill="black"/>
<path d="M289.193 293.653C288.521 294.397 287.51 294.94 286.431 295.213C285.352 295.487 284.069 295.524 282.634 295.241C281.199 294.959 280 294.473 279.036 293.784C278.072 293.095 277.344 292.203 276.936 291.158C276.528 290.113 276.39 289 276.606 287.869C276.921 285.995 277.777 284.558 279.159 283.778C280.54 282.998 282.277 282.773 284.455 283.155C285.89 283.438 287.09 283.923 288.053 284.612C289.017 285.301 289.745 286.194 290.238 287.289C290.646 288.334 290.784 289.447 290.568 290.578C290.336 291.929 289.866 292.909 289.193 293.653ZM278.607 291.237C279.554 292.146 280.973 292.648 283.016 293.064C284.89 293.379 286.307 293.307 287.537 292.78C288.717 292.338 289.44 291.509 289.622 290.243C289.838 289.112 289.43 288.067 288.483 287.159C287.535 286.251 286.032 285.698 284.073 285.333C282.2 285.018 280.698 285.039 279.552 285.616C278.372 286.058 277.734 286.937 277.552 288.203C277.285 289.419 277.693 290.464 278.607 291.237Z" fill="black"/>
<path d="M287.544 277.78C289.132 278.383 290.365 279.004 291.11 279.677C291.482 280.013 291.719 280.384 291.872 280.704C291.975 281.108 291.992 281.463 291.96 281.901C291.827 282.509 291.71 282.898 291.559 283.151L290.073 282.953C290.14 282.649 290.257 282.261 290.44 281.568C290.457 281.349 290.473 281.13 290.354 280.944C290.236 280.759 290.117 280.574 289.914 280.338C288.679 279.144 285.807 278.005 281.333 277.056L279.898 276.774L279.262 278.8L278.351 278.6L280.631 268.048L281.543 268.248L281.413 270.003L292.793 272.433L293.362 270.71L294.273 270.91L293.108 276.516L292.197 276.316L292.427 274.392L281.098 271.877L280.249 275.608L281.853 275.992C284.099 276.643 285.956 277.178 287.544 277.78Z" fill="black"/>
<path d="M282.664 265.022L282.027 266.475L281.116 266.275L283.518 257.055L286.439 257.536L286.189 258.532L284.333 258.571L283.03 263.063L288.096 264.365L288.846 261.376L287.393 260.739L287.643 259.743L291.797 260.844L291.547 261.84L289.927 261.676L289.041 264.699L294.411 266.067L295.543 260.901L293.497 259.337L294.102 258.323L297.092 259.647L294.455 269.644L293.544 269.444L293.792 267.874L282.664 265.022Z" fill="black"/>
<path d="M286.687 250.01L285.886 253.083L289.417 254.844L289.066 256.01L284.387 254.252L287.814 243.122L292.66 244.407L292.309 245.572L288.376 245.061L287.356 248.118L298.62 251.51L299.558 248.977L300.419 249.261L298.33 256.033L297.468 255.749L298.001 253.317L286.687 250.01Z" fill="black"/>
<path d="M297.755 238.166L297.47 239.027C297.573 239.432 297.81 239.803 298.301 240.324C298.707 240.796 299.283 241.368 300.027 242.04C300.771 242.713 301.262 243.235 301.635 243.571C302.007 243.907 302.16 244.228 302.059 244.397L301.222 246.761L300.361 246.477L300.46 245.734C300.476 245.515 300.357 245.33 300.205 245.009C299.917 244.723 299.595 244.303 299.07 243.646C298.41 243.024 297.97 242.418 297.563 241.946C297.157 241.475 296.97 241.02 296.868 240.615C296.33 241.326 295.724 241.766 294.864 242.055C294.055 242.26 293.262 242.246 292.316 241.911C290.897 241.409 290.068 240.686 289.795 239.607C289.522 238.528 289.704 237.262 290.256 235.758C290.373 235.37 290.575 235.032 290.792 234.474C291.01 233.917 291.262 233.494 291.328 233.19L292.266 230.657L293.127 230.941L292.794 232.461L303.756 236.36L304.494 234.738L305.355 235.022L303.515 240.225L302.653 239.94L303.137 238.167L298.408 236.494L297.755 238.166ZM291.704 234.674C291.402 235.181 291.234 235.654 291.117 236.043C290.783 236.988 290.684 237.731 290.989 238.371C291.295 239.012 291.836 239.449 292.866 239.834C293.812 240.169 294.605 240.183 295.33 239.928C296.055 239.673 296.458 238.997 296.877 238.101C297.212 237.155 297.43 236.598 297.462 236.159L292.091 234.217L291.704 234.674Z" fill="black"/>
<path d="M295.538 224.59L294.434 227.596L297.814 229.611L297.379 230.726L292.817 228.58L297.189 217.785L301.918 219.459L301.483 220.573L297.667 219.673L296.343 222.664L307.222 227.087L308.413 224.704L309.224 225.073L306.527 231.712L305.716 231.343L306.418 229.012L295.538 224.59Z" fill="black"/>
<path d="M312.924 215.022C311.997 215.616 310.868 215.973 309.72 215.977C308.573 215.98 307.273 215.663 306.039 215.042C304.806 214.422 303.757 213.682 303.08 212.706C302.402 211.729 301.909 210.634 301.822 209.436C301.734 208.238 301.95 207.107 302.52 205.958C302.939 205.063 303.544 204.048 304.368 203.051L304.754 202.594L307.729 204.137L307.158 205.286L304.777 204.669C304.592 204.788 304.356 204.991 304.02 205.363C303.734 205.651 303.432 206.158 303.214 206.715C302.896 207.442 302.797 208.185 302.917 208.943C303.037 209.702 303.427 210.393 304.121 211.15C304.731 211.857 305.66 212.411 306.81 212.982C307.874 213.502 308.87 213.752 309.917 213.917C310.879 214.033 311.857 213.929 312.633 213.589C313.408 213.249 313.98 212.674 314.399 211.778C314.667 211.136 314.834 210.663 314.901 210.36C314.968 210.056 314.95 209.701 314.847 209.297L313.544 207.833L314.148 206.818L316.329 208.347C316.178 208.601 316.196 208.955 316.113 209.479C316.081 209.917 315.913 210.39 315.881 210.829C315.848 211.268 315.597 211.69 315.329 212.332C314.674 213.431 313.9 214.345 312.924 215.022Z" fill="black"/>
<path d="M307.788 195.583L308.599 195.951L307.946 197.624L316.226 201.987L314.903 199.594L311.556 191.758L311.134 191.506L310.193 192.893L309.382 192.524L311.748 187.978L312.559 188.347L312.057 189.766L322.331 195.203L323.222 193.901L323.982 194.354L321.566 198.984L320.806 198.531L321.408 196.943L312.959 192.48L314.248 194.737L317.629 202.708L318.22 203.061L319.212 201.59L320.023 201.959L317.606 206.589L316.795 206.22L317.348 204.717L307.073 199.28L306.233 200.497L305.422 200.128L307.788 195.583Z" fill="black"/>
<path d="M317.573 177.82L321.899 180.17L321.244 181.268L317.731 179.861L315.531 183.361L325.773 189.236L327.604 186.548L328.365 187.001L324.722 193.306L323.961 192.852L324.85 190.977L314.777 185.202L313.6 186.791L312.84 186.338L317.573 177.82Z" fill="black"/>
<path d="M320.249 175.636L319.24 176.752L318.48 176.299L321.268 172.005L322.029 172.458L321.392 173.911L325.601 176.649L329.145 171.088L324.936 168.35L323.927 169.466L323.166 169.013L325.904 164.804L326.665 165.257L326.078 166.625L335.849 172.907L336.774 171.74L337.534 172.194L334.796 176.403L334.036 175.95L334.757 174.547L330.21 171.608L326.666 177.169L331.213 180.109L332.188 178.857L332.949 179.311L330.16 183.605L329.4 183.151L330.071 181.833L320.249 175.636Z" fill="black"/>
<path d="M329.633 159.123L330.86 157.449L343.998 161.157L344.856 160.294L345.566 160.832L342.71 164.856L341.999 164.318L342.721 162.915L339.917 162.046L336.809 166.493L338.536 168.783L339.596 167.581L340.306 168.119L337.786 171.771L337.076 171.233L337.596 170.169L329.633 159.123ZM332.791 159.975L331.203 159.372L332.337 160.735L336.115 165.736L338.871 161.88L332.791 159.975Z" fill="black"/>
<path d="M344.483 154.001C345.668 155.28 346.515 156.357 346.889 157.267C347.076 157.722 347.128 158.212 347.146 158.566C347.113 159.005 346.912 159.343 346.71 159.681C346.324 160.137 346.038 160.425 345.802 160.628L344.585 159.788C344.82 159.585 345.072 159.162 345.459 158.706C345.56 158.537 345.711 158.283 345.677 158.148C345.693 157.929 345.625 157.659 345.556 157.389C344.927 155.754 342.845 153.483 339.21 150.743L338.043 149.818L336.562 151.341L335.852 150.803L342.441 142.246L343.151 142.784L342.245 144.305L351.428 151.382L352.672 150.062L353.383 150.6L349.869 155.15L349.159 154.612L350.167 152.921L340.984 145.845L338.647 148.804L339.983 149.83C341.759 151.461 343.299 152.722 344.483 154.001Z" fill="black"/>
<path d="M351.68 139.621C352.689 138.504 353.666 137.827 354.779 137.688C355.892 137.55 356.838 137.885 357.836 138.709C358.868 139.667 359.496 140.729 359.449 141.96C359.452 143.108 358.966 144.307 357.957 145.424C357.856 145.593 357.671 145.711 357.57 145.88C357.385 145.999 357.284 146.168 357.049 146.371C356.527 146.862 356.14 147.319 355.753 147.776L354.156 149.687L353.496 149.065L354.387 147.763L345.556 140.094L344.378 141.11L343.718 140.488L347.149 136.462L347.809 137.084L346.767 138.64L349.998 141.482L351.68 139.621ZM355.204 127.175L355.864 127.797L354.873 129.268L363.618 136.886L364.897 135.701L365.557 136.324L361.941 140.468L361.282 139.846L362.273 138.375L353.527 130.757L352.248 131.942L351.588 131.32L355.204 127.175ZM356.338 145.833C356.524 145.715 356.725 145.377 357.011 145.089C357.684 144.345 357.968 143.483 357.898 142.64C357.828 141.796 357.354 141.055 356.525 140.332C355.78 139.66 354.919 139.375 354.21 139.411C353.451 139.531 352.761 139.921 352.088 140.666L350.877 142.12L355.648 146.224C355.917 146.155 356.153 145.952 356.338 145.833Z" fill="black"/>
<path d="M362.005 121.722L360.792 122.603L360.132 121.981L363.75 118.41L364.41 119.032L363.435 120.284L367.056 123.817L371.682 119.129L368.061 115.596L366.849 116.477L366.189 115.855L369.671 112.318L370.331 112.941L369.491 114.158L377.749 122.402L378.962 121.521L379.621 122.143L376.089 125.764L375.429 125.142L376.404 123.89L372.495 120.072L367.868 124.759L371.777 128.578L373.09 127.528L373.75 128.15L370.083 131.806L369.423 131.183L370.347 130.016L362.005 121.722Z" fill="black"/>
<path d="M374.737 107.663L376.251 106.275L388.301 112.77L389.277 112.092L389.887 112.799L386.201 116.1L385.592 115.393L386.651 114.192L384.116 112.681L380.094 116.354L381.266 119L382.613 118.085L383.223 118.792L379.958 121.771L379.348 121.064L380.122 120.151L374.737 107.663ZM377.542 109.106L376.105 108.25L376.919 109.766L379.585 115.478L383.085 112.296L377.542 109.106Z" fill="black"/>
<path d="M387.347 98.228L385.629 99.3804L385.02 98.6735L388.909 95.6081L396.178 100.514L398.14 102.027L397.071 99.7856L393.841 91.561L397.729 88.4956L398.339 89.2025L396.909 90.6409L405.352 98.7659L406.784 97.9012L407.394 98.6081L403.084 101.995L402.474 101.288L403.669 100.053L397.762 94.013L395.173 91.439L396.261 94.0343L399.917 103.658L398.974 104.471L391.012 99.3815L387.901 97.2983L389.884 100.313L394.528 107.318L396.06 106.285L396.67 106.992L392.916 110.023L392.306 109.316L393.45 108.165L387.347 98.228Z" fill="black"/>
<path d="M403.47 84.2439L405.104 83.0412L416.347 90.888L417.358 90.3451L417.917 91.1366L413.91 94.0167L413.351 93.2253L414.529 92.2095L412.229 90.4951L407.801 93.6971L408.703 96.4111L410.084 95.6308L410.643 96.4223L407.057 98.9806L406.498 98.1892L407.356 97.3261L403.47 84.2439ZM406.124 85.9403L404.788 84.915L405.418 86.5499L407.359 92.5173L411.181 89.7558L406.124 85.9403Z" fill="black"/>
<path d="M412.702 79.3238L411.337 79.8846L410.778 79.0932L412.866 77.7035C413.237 77.4662 413.607 77.2289 413.893 76.9412C414.449 76.5852 414.92 76.1789 415.476 75.8229C416.958 74.8737 418.273 74.3974 419.235 74.5127C420.197 74.628 421.077 75.2666 421.788 76.3782C422.348 77.1696 422.637 78.0293 422.657 78.9572C422.676 79.8852 422.442 80.662 421.989 81.4226C421.535 82.1833 420.863 82.9277 419.987 83.4364C419.667 83.5892 419.381 83.8769 419.06 84.0297C418.74 84.1825 418.555 84.3011 418.505 84.3856L420.81 87.821L423.016 86.6166L423.491 87.3576L418.388 90.7303L417.914 89.9893L419.092 88.9734L412.702 79.3238ZM419.512 82.6954C420.304 82.1363 420.841 81.426 420.991 80.5988C421.14 79.7716 420.901 78.8274 420.155 77.5809C419.562 76.6547 418.936 76.1672 418.194 76.0681C417.451 75.969 416.726 76.2242 415.665 76.8516C415.294 77.089 415.008 77.3766 414.638 77.6139C414.402 77.8171 414.267 77.8513 414.217 77.9358L417.911 83.4594C418.266 83.4414 418.771 83.17 419.512 82.6954Z" fill="black"/>
<path d="M430.394 82.309C429.247 82.3123 428.217 81.9273 427.202 81.3228C426.239 80.6338 425.376 79.7758 424.63 78.5294C423.968 77.3333 423.526 76.1535 423.488 74.8712C423.4 73.6735 423.751 72.5082 424.271 71.4437C424.876 70.4296 425.649 69.5161 426.795 68.9391C427.671 68.4303 428.631 67.972 430.031 67.546L430.621 67.325L432.165 70.307L431.103 70.9344L429.428 69.1339C429.208 69.1177 428.854 69.1356 428.449 69.238C428.045 69.3404 427.539 69.6119 427.034 69.8833C426.343 70.2734 425.856 70.8991 425.588 71.5411C425.269 72.2676 425.255 73.0606 425.359 74.039C425.513 74.9328 425.921 75.9778 426.549 77.0389C427.092 78.0497 427.87 78.8574 428.615 79.5301C429.359 80.2029 430.17 80.5717 430.997 80.7211C431.824 80.8706 432.634 80.6657 433.459 80.2415C434.015 79.8855 434.436 79.5637 434.671 79.3605C434.907 79.1574 435.109 78.8193 435.175 78.5154L434.883 76.5084L435.978 76.0159L436.981 78.5608C436.796 78.6794 436.51 78.9671 436.123 79.4238C435.786 79.796 435.5 80.0837 435.214 80.3713C434.928 80.659 434.508 80.9809 433.952 81.3368C432.671 81.948 431.457 82.2553 430.394 82.309Z" fill="black"/>
<path d="M449.083 56.9109L449.507 57.7364L447.975 58.7701L452.117 67.1946L452.497 64.4432L454.43 56.2034L454.243 55.7484L452.658 56.293L452.234 55.4674L456.902 53.2097L457.326 54.0352L456.113 54.9161L461.206 65.3964L462.656 64.8859L463.08 65.7115L458.413 67.9692L457.988 67.1437L459.42 66.279L455.244 57.7196L454.965 60.302L452.931 68.7108L453.237 69.3511L454.871 68.722L455.296 69.5476L450.578 71.8898L450.154 71.0643L451.451 70.2337L446.358 59.7535L444.959 60.1794L444.535 59.3539L449.083 56.9109Z" fill="black"/>
<path d="M460.576 51.8493C460.997 51.5275 461.417 51.2057 461.788 50.9684C462.158 50.7311 462.479 50.5783 462.799 50.4255C464.214 49.7801 465.462 49.6078 466.424 49.7231C467.387 49.8384 468.046 50.4607 468.505 51.4212C468.879 52.3312 468.949 53.1747 468.58 53.9857C468.211 54.7967 467.723 55.4224 466.932 55.9815C467.977 55.5735 468.955 55.4694 469.766 55.8383C470.628 56.1226 471.203 56.6946 471.577 57.6046C472.104 58.8348 472.107 59.9822 471.637 60.9622C471.168 61.9422 470.09 62.789 468.405 63.5026C467.765 63.8082 467.09 63.9789 466.551 64.1155C466.011 64.2521 465.522 64.3041 465.168 64.322C464.814 64.3399 464.594 64.3237 464.544 64.4082L463.539 61.2896L464.449 60.9157L465.889 62.9194C466.548 62.9681 467.441 62.8136 468.402 62.3553C469.177 62.0155 469.699 61.5247 469.832 60.9169C470.015 60.2245 469.98 59.516 469.521 58.5555C469.266 57.8307 468.775 57.3091 468.133 57.041C467.491 56.7729 466.648 56.8429 465.603 57.2509L464.373 57.7776L463.914 56.8171L464.875 56.3588C465.33 56.1718 465.751 55.85 466.087 55.4778C466.423 55.1056 466.675 54.6831 466.758 54.1597C466.841 53.6364 466.704 53.0969 466.483 52.507C466.143 51.7318 465.737 51.2605 465.129 51.1273C464.521 50.9941 463.897 51.0803 463.173 51.3355C462.667 51.607 462.297 51.8443 461.926 52.0816C461.556 52.3189 461.489 52.6228 461.473 52.8422L461.832 54.5453L460.737 55.0379L459.43 52.4263C459.7 52.3581 460.07 52.1208 460.576 51.8493Z" fill="black"/>
<path d="M475.797 46.4898L474.228 46.815L473.939 45.9553L476.299 45.071C476.703 44.9686 477.209 44.6971 477.799 44.476C478.304 44.2046 478.759 44.0177 479.029 43.9494C480.664 43.3203 481.912 43.1479 482.773 43.4322C483.635 43.7166 484.294 44.3389 484.668 45.249C484.958 46.1087 484.943 46.9018 484.709 47.6786C484.475 48.4555 483.903 49.0308 483.162 49.5054C484.257 49.0129 485.27 49.0437 486.131 49.328C486.993 49.6123 487.602 50.3192 487.891 51.1789C488.334 52.3587 488.252 53.4557 487.733 54.5203C487.213 55.5848 485.916 56.4154 483.961 57.1972C483.506 57.3842 483.101 57.4866 482.696 57.589C481.752 57.828 481.247 58.0995 481.027 58.0832L478.668 58.9675L478.378 58.1078L479.709 57.4122L475.797 46.4898ZM480.38 50.1379L481.374 49.8144C482.234 49.525 482.756 49.0342 482.973 48.4767C483.191 47.9193 483.206 47.1262 482.916 46.2665C482.627 45.4068 482.221 44.9356 481.663 44.7178C481.106 44.5001 480.262 44.5701 479.352 44.9439C478.897 45.1309 478.493 45.2333 478.122 45.4706L477.802 45.6234L479.605 50.4776C479.52 50.4272 479.925 50.3248 480.38 50.1379ZM483.637 56.2027C484.817 55.7605 485.608 55.2014 485.927 54.4749C486.245 53.7484 486.26 52.9554 485.971 52.0957C485.597 51.1856 485.156 50.5795 484.599 50.3618C483.957 50.0937 483.198 50.214 482.153 50.622C480.973 51.0642 480.248 51.3194 479.928 51.4722L481.833 56.731C482.053 56.7473 482.643 56.5262 483.637 56.2027Z" fill="black"/>
<path d="M490.71 39.9162L492.699 39.2692L500.982 50.1619L502.146 49.9391L502.435 50.7988L497.732 52.348L497.443 51.4883L498.858 50.843L497.181 48.4688L491.938 50.1546L491.946 53.023L493.515 52.6978L493.804 53.5575L489.556 54.9198L489.267 54.0601L490.277 53.5172L490.71 39.9162ZM492.776 42.4073L491.776 41.0098L491.866 42.7812L491.884 49.0917L496.402 47.6612L492.776 42.4073Z" fill="black"/>
<path d="M505.282 49.2887C504.201 48.9881 503.322 48.3495 502.459 47.4915C501.731 46.5994 501.154 45.4537 500.728 44.0545C500.386 42.7056 500.349 41.4233 500.565 40.2922C500.781 39.1611 501.436 38.0624 502.244 37.2839C503.102 36.4208 504.112 35.878 505.377 35.4862C506.321 35.2472 507.434 35.1089 508.851 35.0373L509.475 34.9511L510.16 38.2225L508.946 38.5298L507.826 36.3733C507.657 36.2725 507.303 36.2905 506.864 36.258C506.425 36.2255 505.885 36.3621 505.346 36.4987C504.537 36.7035 503.93 37.144 503.493 37.6852C503.006 38.3109 502.687 39.0374 502.572 39.9995C502.457 40.9616 502.595 42.0748 502.953 43.2043C503.31 44.3337 503.718 45.3787 504.277 46.1701C504.837 46.9615 505.496 47.5839 506.257 48.0372C507.018 48.4906 507.811 48.5051 508.755 48.2661C509.429 48.0954 509.884 47.9085 510.12 47.7053C510.44 47.5525 510.726 47.2649 510.877 47.0113L511.158 45.0026L512.322 44.7798L512.566 47.4451C512.296 47.5134 511.976 47.6662 511.555 47.988C511.185 48.2253 510.814 48.4626 510.359 48.6495C509.988 48.8868 509.449 49.0234 508.909 49.16C507.595 49.6363 506.363 49.5892 505.282 49.2887Z" fill="black"/>
<path d="M519.498 34.8543C519.883 33.8239 520.437 32.8943 521.194 32.2003C521.951 31.5063 522.777 31.082 523.856 30.8089C525.07 30.5016 526.167 30.5828 527.113 30.9175C528.059 31.2522 528.938 31.8908 529.531 32.8171C530.124 33.7434 530.617 34.8387 531.009 36.103C531.384 37.5867 531.371 38.9535 531.105 40.1692C530.839 41.3848 530.369 42.3648 529.561 43.1433C528.754 43.9219 527.878 44.4306 526.799 44.7038C525.585 45.011 524.488 44.9299 523.457 44.5448C522.512 44.2101 521.632 43.5715 520.989 42.7297C520.345 41.8879 519.768 40.7423 519.511 39.4438L516.594 40.1103L517.791 45.405L519.393 45.2147L519.547 46.1086L514.522 47.2369L514.368 46.3431L515.818 45.8326L513.304 34.4843L511.752 34.5901L511.513 33.6459L516.403 32.5517L516.642 33.4959L515.192 34.0064L516.287 38.8964L519.288 38.2802C519.066 37.1166 519.147 36.0196 519.498 34.8543ZM521.537 34.1228C521.051 35.3222 521.022 36.9084 521.534 38.9317C521.978 40.6852 522.539 42.0503 523.486 42.9586C524.434 43.867 525.38 44.2017 526.678 43.9448C527.842 43.7221 528.65 42.9435 529.001 41.7783C529.351 40.613 529.381 39.0268 528.953 37.0539C528.509 35.3004 527.948 33.9353 527.085 33.0773C526.222 32.2193 525.192 31.8342 524.028 32.057C522.865 32.2798 522.023 32.9234 521.537 34.1228Z" fill="black"/>
<path d="M540.727 35.9397C541.303 36.5117 541.997 37.269 542.944 38.1774C543.554 38.8843 543.96 39.3555 544.332 39.6919C544.704 40.0283 544.873 40.129 545.093 40.1453L545.836 40.2443L545.99 41.1382L543.713 41.4991C543.443 41.5674 543.105 41.3659 542.649 40.9792C542.192 40.5925 541.667 39.9359 540.939 39.0438C540.177 38.0168 539.483 37.2595 538.992 36.7379C538.501 36.2162 538.028 36.0489 537.674 36.0668L536.51 36.2895L537.403 41.5176L539.039 41.4622L539.194 42.356L534.101 43.2146L533.946 42.3207L535.43 41.9452L533.54 30.5107L532.039 30.532L531.884 29.6382L536.843 28.8138L536.997 29.7076L535.463 30.1676L536.305 35.4802L537.873 35.155L540.741 29.1904L539.105 29.2458L538.95 28.352L543.504 27.63L543.658 28.5239L542.259 28.9498L539.122 34.9827C539.51 35.0996 540.102 35.4522 540.727 35.9397Z" fill="black"/>
<path d="M549.109 40.1336C548.129 39.664 547.435 38.9068 546.892 37.896C546.349 36.8852 545.907 35.7053 545.751 34.2378C545.594 32.7703 545.641 31.5384 546.077 30.4235C546.512 29.3086 547.066 28.379 547.959 27.6508C548.851 26.9227 549.896 26.5147 551.009 26.3764C552.966 26.1682 554.435 26.5858 555.636 27.6453C556.837 28.7048 557.55 30.39 557.793 32.4815C557.949 33.9491 557.852 35.2654 557.416 36.3803C556.981 37.4952 556.376 38.5094 555.484 39.2375C554.592 39.9657 553.547 40.3737 552.434 40.512C551.135 40.7689 550.089 40.6032 549.109 40.1336ZM548.402 29.4043C547.832 30.5534 547.718 32.0892 547.876 34.1304C548.135 36.0025 548.645 37.4521 549.458 38.3946C550.22 39.4217 551.251 39.8067 552.499 39.6344C553.696 39.5465 554.589 38.8183 555.159 37.6693C555.729 36.5203 555.893 34.9 555.601 32.8929C555.342 31.0208 554.832 29.5711 554.019 28.6286C553.206 27.6861 552.226 27.2165 550.978 27.3889C549.814 27.6116 548.973 28.2553 548.402 29.4043Z" fill="black"/>
<path d="M560.56 26.6859L559.024 26.5722L559.004 25.6443L561.535 25.4344C561.974 25.4669 562.513 25.3303 563.137 25.2441C563.761 25.1579 564.166 25.0555 564.47 25.1221C566.157 24.9822 567.423 25.1641 568.183 25.6174C568.944 26.0708 569.419 26.8118 569.472 27.8747C569.542 28.7181 569.393 29.5453 568.905 30.1711C568.418 30.7968 567.761 31.3218 566.952 31.5266C568.15 31.4388 569.062 31.6386 569.822 32.0919C570.583 32.5453 571.007 33.3708 571.061 34.4337C571.149 35.6314 570.798 36.7967 569.99 37.5752C569.132 38.4383 567.682 38.9487 565.641 39.1065C565.152 39.1586 564.798 39.1765 564.359 39.144C563.431 39.1636 562.807 39.2498 562.588 39.2336L560.057 39.4434L559.987 38.6L561.556 38.2748L560.56 26.6859ZM563.999 31.4846L565.062 31.4309C565.905 31.361 566.546 31.0554 566.983 30.5142C567.42 29.9729 567.604 29.2806 567.449 28.3868C567.379 27.5433 567.074 26.903 566.617 26.5163C566.16 26.1295 565.333 25.9801 564.27 26.0338C563.781 26.0859 563.376 26.1883 562.887 26.2404L562.482 26.3428L562.936 31.5384C563.071 31.5042 563.425 31.4863 563.999 31.4846ZM565.402 38.1623C566.6 38.0745 567.51 37.7006 568.082 37.1252C568.654 36.5499 568.838 35.8575 568.784 34.7947C568.68 33.8163 568.374 33.176 567.918 32.7893C567.376 32.3522 566.549 32.2027 565.436 32.341C564.154 32.3785 563.395 32.4988 563.04 32.5167L563.512 38.0666C563.715 38.3022 564.424 38.2664 565.402 38.1623Z" fill="black"/>
<path d="M589.862 24.2211L589.881 25.1491L588.313 25.4743L588.515 37.0487L590.271 37.1785L590.29 38.1065L585.077 38.2061L585.057 37.2781L586.575 37.0375L586.338 25.3282L580.332 25.4132L580.568 37.1225L582.324 37.2524L582.343 38.1803L577.13 38.2799L577.11 37.352L578.628 37.1113L578.425 25.5369L576.805 25.3729L576.785 24.445L589.862 24.2211Z" fill="black"/>
<path d="M594.22 37.4707C593.34 36.8321 592.697 35.9903 592.289 34.9453C591.881 33.9004 591.708 32.6523 591.771 31.201C591.835 29.7497 592.101 28.5341 592.672 27.3851C593.191 26.3205 593.999 25.542 594.925 24.9487C595.852 24.3555 596.931 24.0823 598.163 24.1294C600.103 24.1406 601.556 24.7775 602.606 26.0905C603.571 27.3532 604.066 29.0222 603.988 31.2666C603.925 32.7178 603.608 34.018 603.088 35.0825C602.518 36.2315 601.71 37.0101 600.699 37.553C599.688 38.0959 598.609 38.369 597.462 38.3724C596.095 38.3595 595.099 38.1093 594.22 37.4707ZM595.065 26.6356C594.326 27.6839 593.993 29.2035 593.931 31.2285C593.836 33.1185 594.211 34.6023 594.839 35.6634C595.466 36.7246 596.48 37.3291 597.628 37.3257C598.859 37.3728 599.735 36.864 600.525 35.7312C601.264 34.6829 601.648 33.0788 601.709 31.0539C601.805 29.1638 601.43 27.68 600.802 26.6189C600.175 25.5577 599.245 25.0036 598.013 24.9566C596.765 25.129 595.754 25.6719 595.065 26.6356Z" fill="black"/>
<path d="M609.766 33.6793C609.416 35.4183 608.931 36.6177 608.292 37.497C608.04 37.9196 607.619 38.2414 607.299 38.3942C606.979 38.547 606.574 38.6494 606.135 38.6169C605.562 38.6186 605.089 38.4512 604.869 38.435L604.848 36.9334C605.152 37 605.591 37.0324 606.249 37.0811C606.468 37.0974 606.688 37.1136 606.873 36.9949C607.058 36.8763 607.244 36.7576 607.395 36.5041C608.47 35.0836 609.086 32.129 609.427 27.5216L609.49 26.0704L607.313 25.6886L607.377 24.8111L618.128 25.6064L618.063 26.484L616.292 26.5735L615.431 38.2017L617.305 38.5168L617.24 39.3944L611.536 38.9723L611.601 38.0947L613.592 38.0214L614.452 26.3933L610.722 26.1174L610.643 27.7881C610.345 30.0162 610.064 32.0249 609.766 33.6793Z" fill="black"/>
<path d="M621.642 27.0136L620.173 26.596L620.288 25.6339L629.74 26.6862L629.698 29.6391L628.651 29.4734L628.308 27.5509L623.767 26.9061L623.158 32.1554L626.315 32.4331L626.732 30.9639L627.779 31.1295L627.285 35.4168L626.238 35.2511L626.183 33.6146L623.077 33.2524L622.402 38.8057L627.667 39.1952L628.892 36.9475L629.957 37.4675L629.106 40.6253L618.826 39.4236L618.891 38.546L620.478 38.5751L621.642 27.0136Z" fill="black"/>
<path d="M637.12 28.9086L633.93 28.4961L632.726 32.2455L631.46 32.0636L632.525 27.201L644.038 29.0234L643.496 33.9688L642.365 33.7528L642.353 29.737L639.179 29.1051L637.391 40.7528L639.991 41.3864L639.791 42.2981L632.769 41.205L632.969 40.2933L635.382 40.4718L637.12 28.9086Z" fill="black"/>
<path d="M650.376 38.1837L649.464 37.9839C649.144 38.1367 648.723 38.4585 648.336 38.9152C647.899 39.4565 647.411 40.0822 646.908 40.9273C646.319 41.7221 645.967 42.3137 645.631 42.6859C645.294 43.0581 645.059 43.2612 644.839 43.245L642.357 42.7967L642.557 41.8849L643.266 41.8491C643.485 41.8654 643.67 41.7467 643.956 41.459C644.242 41.1713 644.629 40.7146 645.117 40.0889C645.655 39.3786 646.227 38.8033 646.613 38.3466C647.085 37.9402 647.506 37.6184 647.91 37.516C647.099 37.1472 646.524 36.5752 646.184 35.8C645.844 35.0248 645.774 34.1814 645.974 33.2696C646.257 31.8346 646.946 30.8708 647.856 30.4969C648.901 30.0889 650.183 30.0514 651.787 30.4348C652.091 30.5014 652.614 30.5843 653.172 30.802C653.78 30.9352 654.168 31.0522 654.472 31.1188L657.123 31.6678L656.923 32.5796L655.387 32.4659L653.142 43.7269L654.78 44.2452L654.581 45.1569L649.144 44.0929L649.344 43.1812L651.184 43.3614L652.165 38.4485L650.376 38.1837ZM653.022 31.6292C652.465 31.4115 652.026 31.379 651.553 31.2117C650.641 31.0119 649.798 31.0818 649.293 31.3533C648.652 31.6589 648.249 32.335 648.084 33.3816C647.833 34.3778 648.038 35.1871 648.344 35.8274C648.784 36.4336 649.46 36.8365 650.372 37.0364C651.368 37.2865 652.027 37.3352 652.331 37.4018L653.495 31.7965L653.022 31.6292Z" fill="black"/>
<path d="M663.474 34.0792L660.3 33.4473L658.708 37.0797L657.492 36.8132L658.996 31.9831L670.309 34.7172L669.328 39.6302L668.248 39.3296L668.54 35.3804L665.382 34.5292L662.547 46.0112L665.047 46.8138L664.847 47.7255L657.958 46.0246L658.157 45.1129L660.555 45.5108L663.474 34.0792Z" fill="black"/>
<path d="M675.45 49.9218C674.721 49.0296 674.263 48.0692 674.04 46.9056C673.818 45.742 673.999 44.476 674.367 43.0913C674.818 41.757 675.473 40.6584 676.331 39.7953C677.189 38.9323 678.2 38.3894 679.364 38.1666C680.527 37.9439 681.674 37.9405 682.924 38.3418C683.786 38.6262 684.901 39.0616 686.084 39.7668L686.591 40.069L685.385 43.2447L684.22 42.8938L684.483 40.5308C684.364 40.3455 684.161 40.1099 683.739 39.858C683.316 39.6062 682.843 39.4388 682.286 39.2211C681.509 38.9871 680.8 39.023 680.075 39.2782C679.351 39.5334 678.694 40.0584 678.072 40.7183C677.484 41.513 676.98 42.3582 676.579 43.6079C676.228 44.7732 676.062 45.8198 676.081 46.7478C676.101 47.6757 676.34 48.6199 676.815 49.361C677.289 50.102 677.915 50.5895 678.776 50.8738C679.469 51.0574 679.857 51.1744 680.296 51.2068C680.65 51.1889 681.005 51.171 681.325 51.0182L682.586 49.4791L683.65 49.9991L682.459 52.3816C682.155 52.315 681.801 52.333 681.278 52.2501C680.839 52.2177 680.35 52.2697 679.961 52.1527C679.522 52.1203 679.049 51.9529 678.442 51.8197C677.192 51.4184 676.178 50.8139 675.45 49.9218Z" fill="black"/>
<path d="M693.903 42.0218L693.618 42.8832L691.795 42.4835L688.581 51.3345L690.82 49.6912L698.114 45.3335L698.281 44.8605L696.794 44.0887L697.078 43.2274L701.892 44.9512L701.608 45.8126L700.173 45.5299L696.273 56.492L697.676 57.2135L697.392 58.0748L692.493 56.3006L692.778 55.4392L694.382 55.8226L697.561 46.8368L695.507 48.3614L688.079 52.7533L687.811 53.3952L689.433 54.1329L689.149 54.9943L684.166 53.1697L684.45 52.3083L685.97 52.6413L689.869 41.6792L688.551 41.0082L688.835 40.1468L693.903 42.0218Z" fill="black"/>
<path d="M712.906 49.3399L711.199 53.9344L709.999 53.4486L710.933 49.7675L707.132 48.0744L702.659 59.0382L705.599 60.4469L705.23 61.2579L698.422 58.46L698.791 57.649L700.733 58.2339L705.055 47.5237L703.365 46.5162L703.734 45.7052L712.906 49.3399Z" fill="black"/>
<path d="M715.512 51.6944L714.294 50.8543L714.663 50.0434L719.275 52.1053L718.907 52.9163L717.353 52.4483L715.291 57.0608L721.221 59.7937L723.283 55.1814L721.982 54.2909L722.35 53.4799L726.963 55.5418L726.594 56.3528L725.125 55.9353L720.33 66.4781L721.598 67.2337L721.229 68.0447L716.616 65.9828L716.985 65.1718L718.454 65.5893L720.718 60.6389L714.787 57.9059L712.524 62.8563L713.961 63.7127L713.592 64.5236L708.895 62.4114L709.264 61.6004L710.733 62.0179L715.512 51.6944Z" fill="black"/>
<path d="M733.08 58.7297L734.905 59.7031L733.021 73.2408L733.985 73.9298L733.616 74.7408L729.24 72.4757L729.608 71.6647L731.112 72.2172L731.593 69.2967L726.793 66.7797L724.741 68.878L726.043 69.7685L725.674 70.5795L721.72 68.5663L722.088 67.7553L723.254 68.1062L733.08 58.7297ZM732.803 61.8858L733.102 60.2314L731.992 61.517L727.601 66.0012L731.809 68.1656L732.803 61.8858Z" fill="black"/>
<path d="M740.258 72.6291C739.233 73.965 738.19 74.9467 737.314 75.4555C736.808 75.7269 736.404 75.8294 736.049 75.8473C735.695 75.8652 735.307 75.7482 734.884 75.4964C734.377 75.1941 733.954 74.9422 733.751 74.7066L734.338 73.3382C734.591 73.4893 735.014 73.7412 735.521 74.0434C735.69 74.1441 735.909 74.1604 736.129 74.1766C736.348 74.1928 736.534 74.0742 736.854 73.9214C738.37 73.107 740.354 70.739 742.637 66.7165L743.393 65.4488L741.618 64.391L742.122 63.5459L751.519 68.9178L751.015 69.7629L749.343 69.1098L743.568 79.1831L745.073 80.3091L744.619 81.0698L739.583 78.1823L740.036 77.4217L741.827 78.2601L747.602 68.1868L744.256 66.3068L743.399 67.7435C742.426 69.5687 741.284 71.2931 740.258 72.6291Z" fill="black"/>
<path d="M755.493 77.8153C756.71 78.6554 757.523 79.5979 757.846 80.5925C758.17 81.5871 757.954 82.7182 757.215 83.7665C756.374 84.9839 755.398 85.6616 754.285 85.7999C753.036 85.9723 751.871 85.6213 750.604 84.8657C750.434 84.765 750.265 84.6643 750.096 84.5635C749.927 84.4628 749.758 84.362 749.555 84.1264C749.014 83.6893 748.422 83.3367 747.966 82.9499L745.819 81.5557L746.272 80.7951L747.675 81.5165L753.957 71.7455L752.84 70.7364L753.293 69.9757L757.756 72.8649L757.303 73.6255L755.597 72.8374L753.211 76.4553L755.493 77.8153ZM749.974 83.2309C750.143 83.3316 750.431 83.6176 750.769 83.8191C751.699 84.3732 752.476 84.6072 753.285 84.4023C754.094 84.1975 754.751 83.6725 755.305 82.7428C755.859 81.8132 756.043 81.1209 755.838 80.3116C755.667 79.6371 755.142 78.9806 754.263 78.342L752.657 77.3849L749.264 82.693C749.602 82.8945 749.805 83.1301 749.974 83.2309ZM768.288 79.6002L767.835 80.3608L766.213 79.6232L759.931 89.3942L761.301 90.5544L760.847 91.3151L756.216 88.3252L756.669 87.5646L758.24 88.3868L764.522 78.6157L763.152 77.4555L763.606 76.6948L768.288 79.6002Z" fill="black"/>
<path d="M774.599 85.5381L773.533 84.4445L774.071 83.7343L778.129 86.7258L777.591 87.4361L776.189 86.7146L773.197 90.7729L778.507 94.7395L781.498 90.6812L780.432 89.5875L780.97 88.8773L785.028 91.8688L784.49 92.5791L783.172 91.908L776.214 101.276L777.331 102.285L776.793 102.995L772.735 100.004L773.273 99.2936L774.625 100.1L777.902 95.7536L772.593 91.7871L769.315 96.1331L770.466 97.2771L769.928 97.9873L765.835 94.8609L766.373 94.1506L767.726 94.9566L774.599 85.5381Z" fill="black"/>
<path d="M790.322 96.0545L791.945 97.3659L787.242 110.254L787.97 111.146L787.432 111.856L783.609 108.662L784.147 107.951L785.449 108.842L786.622 106.105L782.377 102.658L779.969 104.201L781.119 105.345L780.582 106.055L777.131 103.197L777.669 102.486L778.683 103.091L790.322 96.0545ZM789.386 99.1619L790.073 97.6244L788.676 98.6241L783.438 102.031L787.142 105.04L789.386 99.1619Z" fill="black"/>
<path d="M801.406 107.243L800.069 105.644L800.691 104.984L804.278 108.382L800.471 116.306L799.296 118.47L801.334 117.164L808.982 112.789L812.569 116.187L811.947 116.847L810.272 115.62L803.399 125.038L804.449 126.351L803.827 127.011L799.952 123.327L800.574 122.667L801.91 123.693L807.037 117.013L809.239 114.087L806.796 115.495L797.868 120.482L797.005 119.624L800.996 111.007L802.606 107.729L799.913 110.133L793.585 115.753L794.804 117.167L794.182 117.827L790.679 114.479L791.302 113.819L792.553 114.794L801.406 107.243Z" fill="black"/>
<path d="M817.578 121.234L818.966 122.749L812.809 135L813.538 135.892L812.915 136.552L809.513 133.035L810.136 132.375L811.387 133.35L812.764 130.849L809.04 126.912L806.428 128.218L807.394 129.481L806.771 130.141L803.742 126.961L804.364 126.301L805.328 126.99L817.578 121.234ZM816.304 124.14L817.16 122.703L815.644 123.518L809.966 126.318L813.283 129.784L816.304 124.14Z" fill="black"/>
<path d="M823.795 129.635L823.049 128.389L823.756 127.779L825.381 129.664C825.669 129.95 825.991 130.371 826.278 130.657C826.769 131.179 827.226 131.566 827.632 132.037C828.767 133.4 829.428 134.596 829.398 135.609C829.367 136.621 828.897 137.601 827.955 138.414C827.197 139.108 826.422 139.448 825.528 139.602C824.635 139.757 823.807 139.607 822.996 139.239C822.185 138.87 821.391 138.281 820.697 137.524C820.409 137.238 820.206 137.003 819.969 136.632C819.681 136.346 819.562 136.161 819.528 136.026L816.414 138.752L817.939 140.806L817.232 141.415L813.203 136.837L813.91 136.228L815.111 137.287L823.795 129.635ZM821.404 136.915C822.098 137.672 822.774 138.075 823.651 138.14C824.529 138.205 825.439 137.831 826.482 136.849C827.239 136.155 827.693 135.395 827.657 134.686C827.621 133.977 827.281 133.202 826.553 132.31C826.266 132.024 825.978 131.738 825.606 131.402C825.403 131.166 825.234 131.065 825.234 131.065L820.235 135.416C820.472 135.787 820.794 136.208 821.404 136.915Z" fill="black"/>
<path d="M823.308 147.556C823.169 146.443 823.385 145.312 823.855 144.332C824.325 143.352 825.199 142.269 826.327 141.338C827.404 140.491 828.55 139.914 829.713 139.691C830.877 139.469 832.058 139.6 833.173 140.036C834.288 140.471 835.252 141.16 836.014 142.187C836.624 142.894 837.251 143.955 837.828 145.101L838.184 145.657L835.439 147.571L834.627 146.629L836.174 144.802C836.19 144.583 836.037 144.262 835.935 143.858C835.832 143.453 835.426 142.982 835.02 142.511C834.495 141.854 833.903 141.501 833.126 141.268C832.349 141.034 831.506 141.104 830.646 141.393C829.787 141.682 828.776 142.225 827.884 142.953C826.992 143.681 826.268 144.51 825.68 145.305C825.176 146.15 824.808 146.961 824.827 147.889C824.847 148.817 825.102 149.542 825.711 150.249C826.118 150.72 826.44 151.141 826.778 151.342C827.116 151.544 827.369 151.695 827.673 151.762L829.612 151.199L830.239 152.26L827.847 153.583C827.644 153.348 827.306 153.146 826.934 152.81C826.511 152.558 826.224 152.272 825.801 152.02C825.513 151.734 825.141 151.398 824.735 150.927C824.023 149.815 823.446 148.669 823.308 147.556Z" fill="black"/>
<path d="M848.464 158.771L847.673 159.33L846.454 157.916L838.776 163.304L841.56 163.246L849.981 163.913L850.402 163.591L849.672 162.125L850.464 161.566L853.412 165.843L852.621 166.402L851.554 165.309L841.973 171.968L842.753 173.349L842.012 173.824L839.064 169.547L839.805 169.072L840.905 170.301L848.718 164.878L846.154 164.953L837.513 164.27L836.957 164.626L837.772 166.142L837.03 166.617L833.998 162.289L834.739 161.814L835.754 162.993L845.336 156.334L844.64 155.003L845.431 154.443L848.464 158.771Z" fill="black"/>
<path d="M855.312 169.381C855.769 169.768 856.006 170.138 856.294 170.424C856.582 170.71 856.819 171.081 857.022 171.316C857.853 172.613 858.295 173.793 858.264 174.805C858.233 175.818 857.78 176.578 856.904 177.087C856.028 177.596 855.219 177.801 854.357 177.517C853.53 177.367 852.77 176.914 852.16 176.207C852.703 177.218 852.942 178.162 852.793 178.989C852.643 179.816 852.105 180.527 851.364 181.001C850.253 181.713 849.089 181.936 848.059 181.551C846.978 181.25 846.03 180.342 844.997 178.809C844.556 178.203 844.335 177.613 844.114 177.023C843.893 176.433 843.791 176.029 843.638 175.709C843.569 175.439 843.501 175.169 843.467 175.034L846.399 173.575L846.873 174.316L845.157 176.042C845.193 176.75 845.533 177.525 846.042 178.401C846.516 179.142 846.973 179.529 847.716 179.628C848.374 179.677 849.133 179.557 849.924 178.997C850.615 178.607 850.967 178.016 851.236 177.374C851.504 176.732 851.214 175.872 850.621 174.946L849.909 173.834L850.785 173.326L851.378 174.252C851.7 174.673 852.022 175.094 852.444 175.345C852.867 175.597 853.34 175.765 853.914 175.763C854.487 175.761 854.942 175.574 855.498 175.218C856.239 174.744 856.626 174.287 856.675 173.629C856.808 173.021 856.587 172.431 856.112 171.69C855.841 171.185 855.553 170.899 855.181 170.562C854.893 170.276 854.589 170.21 854.37 170.194L852.735 170.823L852.057 169.846L854.431 168.169C854.618 168.624 854.906 168.91 855.312 169.381Z" fill="black"/>
<path d="M862.862 183.616L862.352 182.167L863.178 181.743L864.382 183.949C864.619 184.32 864.891 184.825 865.247 185.381C865.603 185.937 865.84 186.307 865.959 186.493C866.773 188.009 867.215 189.189 867.015 190.1C866.95 190.978 866.412 191.688 865.537 192.197C864.711 192.621 863.952 192.742 863.209 192.643C862.467 192.544 861.706 192.09 861.097 191.383C861.724 192.444 861.963 193.389 861.763 194.3C861.563 195.212 861.076 195.838 860.2 196.347C859.139 196.974 857.941 197.062 856.911 196.677C855.796 196.241 854.729 195.148 853.712 193.396C853.475 193.025 853.288 192.57 853.135 192.25C852.711 191.425 852.439 190.919 852.321 190.734L851.116 188.527L851.942 188.103L852.907 189.366L862.862 183.616ZM854.503 192.837C855.131 193.898 855.74 194.605 856.517 194.839C857.294 195.073 858.053 194.952 858.878 194.528C859.704 194.104 860.192 193.478 860.325 192.87C860.458 192.263 860.253 191.453 859.71 190.442C859.083 189.381 858.693 188.691 858.54 188.37L853.705 191.101C853.689 191.321 854.045 191.876 854.503 192.837ZM860.059 188.703L860.568 189.579C861.043 190.32 861.534 190.842 862.141 190.975C862.749 191.108 863.508 190.988 864.249 190.514C864.99 190.039 865.462 189.633 865.595 189.025C865.728 188.417 865.523 187.608 865.014 186.732C864.777 186.361 864.54 185.991 864.218 185.57L863.981 185.199L859.466 187.777C859.635 187.878 859.788 188.198 860.059 188.703Z" fill="black"/>
<path d="M871.778 197.291L872.745 199.128L863.325 208.975L863.682 210.105L862.857 210.529L860.667 206.132L861.493 205.707L862.323 207.004L864.46 204.956L861.999 200.053L859.098 200.501L859.693 202.001L858.868 202.425L856.865 198.482L857.691 198.058L858.369 199.035L871.778 197.291ZM869.574 199.643L870.853 198.458L869.15 198.818L862.944 199.814L865.099 204.077L869.574 199.643Z" fill="black"/>
<path d="M864.653 213.089C864.784 211.907 865.254 210.927 866.028 210.014C866.801 209.1 867.828 208.338 869.193 207.777C870.474 207.166 871.722 206.994 872.954 207.041C874.186 207.088 875.3 207.523 876.264 208.212C877.228 208.901 877.956 209.793 878.483 211.024C878.857 211.934 879.214 213.063 879.471 214.362L879.557 214.986L876.423 216.21L875.93 215.114L877.934 213.674C877.95 213.455 878.017 213.151 877.914 212.746C877.812 212.342 877.675 211.802 877.404 211.297C877.064 210.521 876.573 210 875.897 209.597C875.221 209.194 874.394 209.044 873.466 209.064C872.538 209.084 871.459 209.357 870.363 209.849C869.268 210.342 868.342 210.935 867.635 211.545C866.878 212.239 866.424 212.999 866.19 213.776C865.956 214.553 866.026 215.396 866.4 216.306C866.706 216.947 866.943 217.317 867.231 217.603C867.519 217.889 867.722 218.125 868.026 218.191L870.016 218.118L870.374 219.248L867.761 219.981C867.642 219.796 867.405 219.425 867.083 219.004C866.711 218.668 866.474 218.297 866.236 217.927C865.999 217.556 865.677 217.135 865.456 216.545C864.744 215.434 864.521 214.27 864.653 213.089Z" fill="black"/>
<path d="M881.071 224.936C882.202 225.152 883.098 225.571 883.893 226.16C884.687 226.748 885.281 227.674 885.655 228.584C886.097 229.764 886.201 230.742 886.035 231.789C885.785 232.785 885.366 233.681 884.558 234.459C883.751 235.238 882.774 235.916 881.459 236.392C880.094 236.953 878.711 237.159 877.479 237.112C876.247 237.065 875.217 236.68 874.253 235.991C873.289 235.302 872.73 234.511 872.322 233.466C871.88 232.286 871.742 231.173 871.908 230.126C872.073 229.08 872.577 228.234 873.3 227.405C874.108 226.627 875.084 225.949 876.315 225.423L875.243 222.608L870.153 224.614L870.563 226.232L869.703 226.522L867.85 221.752L868.71 221.463L869.49 222.844L880.26 218.611L879.884 217.127L880.794 216.753L882.613 221.388L881.703 221.762L880.923 220.381L876.288 222.2L877.359 225.015C878.827 224.858 879.974 224.855 881.071 224.936ZM882.207 226.873C880.992 226.607 879.389 226.797 877.434 227.579C875.749 228.293 874.503 229.039 873.763 230.087C873.024 231.135 872.858 232.182 873.301 233.362C873.793 234.457 874.537 235.13 875.803 235.312C877.019 235.578 878.587 235.253 880.492 234.556C882.177 233.842 883.424 233.096 884.163 232.048C884.902 230.999 885.068 229.953 884.66 228.908C884.252 227.863 883.423 227.14 882.207 226.873Z" fill="black"/>
<path d="M883.343 246.105C882.941 246.782 882.217 247.61 881.394 248.608C880.771 249.268 880.419 249.86 880.133 250.148C879.931 250.486 879.73 250.824 879.764 250.959L879.8 251.667L878.94 251.956L878.174 249.782C878.106 249.512 878.223 249.124 878.61 248.667C878.996 248.21 879.534 247.5 880.257 246.671C881.166 245.724 881.754 244.929 882.191 244.388C882.628 243.847 882.711 243.323 882.693 242.969L882.336 241.839L877.312 243.541L877.587 245.194L876.727 245.484L875.144 240.646L876.004 240.356L876.649 241.772L887.64 238.129L887.399 236.611L888.259 236.322L889.808 241.025L888.948 241.314L888.303 239.899L883.195 241.55L883.655 243.084L889.955 245.006L889.629 243.438L890.489 243.149L891.885 247.532L891.026 247.821L890.33 246.49L883.912 244.383C883.964 244.872 883.746 245.429 883.343 246.105Z" fill="black"/>
<path d="M880.434 255.023C880.768 254.077 881.323 253.147 882.299 252.47C883.191 251.741 884.337 251.164 885.686 250.823C887.085 250.397 888.367 250.36 889.499 250.576C890.714 250.842 891.694 251.312 892.523 252.035C893.352 252.758 893.945 253.684 894.253 254.898C894.73 256.786 894.617 258.322 893.676 259.709C892.786 261.01 891.303 261.96 889.23 262.556C887.831 262.982 886.548 263.02 885.282 262.838C884.067 262.571 883.087 262.102 882.173 261.328C881.344 260.605 880.801 259.594 880.444 258.465C880.102 257.116 880.184 256.019 880.434 255.023ZM891.023 252.63C889.858 252.279 888.221 252.334 886.283 252.897C884.479 253.425 883.148 254.121 882.324 255.119C881.415 256.066 881.25 257.113 881.557 258.327C881.915 259.456 882.693 260.264 883.858 260.615C885.108 261.016 886.66 260.91 888.599 260.348C890.403 259.819 891.734 259.124 892.558 258.126C893.331 257.212 893.632 256.132 893.325 254.918C892.967 253.788 892.273 253.031 891.023 252.63Z" fill="black"/>
<path d="M895.495 264.344L895.389 262.792L896.333 262.553L896.948 264.98C897.05 265.385 897.187 265.925 897.408 266.515C897.629 267.104 897.731 267.509 897.8 267.779C898.159 269.482 898.247 270.68 897.828 271.575C897.408 272.471 896.802 272.911 895.808 273.235C894.998 273.44 894.121 273.375 893.394 273.056C892.668 272.738 892.093 272.166 891.719 271.256C892.026 272.47 891.961 273.347 891.542 274.243C891.173 275.054 890.432 275.528 889.488 275.767C888.274 276.075 887.143 275.859 886.179 275.17C885.215 274.481 884.519 273.15 884.007 271.126C883.905 270.722 883.853 270.233 883.75 269.828C883.511 268.884 883.425 268.26 883.391 268.125L882.777 265.697L883.67 265.542L884.181 266.992L895.495 264.344ZM884.867 270.837C885.174 272.051 885.598 272.877 886.275 273.28C886.951 273.682 887.693 273.782 888.638 273.543C889.582 273.304 890.188 272.863 890.49 272.356C890.792 271.849 890.857 270.971 890.584 269.892C890.277 268.678 890.072 267.869 890.004 267.599L884.574 268.83C884.542 269.269 884.628 269.893 884.867 270.837ZM891.356 268.405L891.545 269.434C891.749 270.243 892.19 270.849 892.697 271.152C893.289 271.504 893.947 271.553 894.891 271.314C895.7 271.109 896.256 270.753 896.558 270.246C896.861 269.739 896.875 268.946 896.602 267.867C896.5 267.462 896.313 267.007 896.261 266.518L896.158 266.113L891.083 267.326C891.151 267.596 891.219 267.866 891.356 268.405Z" fill="black"/>
<path d="M902.564 292.838L901.67 292.993L901.21 291.459L889.81 293.483L889.899 295.255L889.005 295.409L888.113 290.181L889.006 290.027L889.467 291.561L900.951 289.587L899.888 283.684L888.353 285.743L888.442 287.514L887.548 287.669L886.605 282.525L887.499 282.371L887.925 283.77L899.325 281.745L899.27 280.109L900.164 279.954L902.564 292.838Z" fill="black"/>
<path d="M890.046 299.236C890.515 298.256 891.272 297.562 892.199 296.969C893.21 296.426 894.389 295.984 895.772 295.777C897.155 295.571 898.472 295.668 899.587 296.104C900.702 296.539 901.631 297.093 902.359 297.985C903.088 298.878 903.495 299.923 903.634 301.036C903.842 302.992 903.509 304.512 902.365 305.663C901.305 306.864 899.62 307.577 897.529 307.82C896.061 307.976 894.745 307.879 893.63 307.443C892.515 307.008 891.501 306.403 890.773 305.511C890.044 304.619 889.636 303.574 889.414 302.41C889.41 301.263 889.542 300.081 890.046 299.236ZM900.825 298.446C899.676 297.875 898.14 297.762 896.049 298.004C894.177 298.263 892.727 298.773 891.785 299.586C890.842 300.398 890.372 301.378 890.545 302.626C890.717 303.874 891.361 304.716 892.51 305.287C893.659 305.857 895.279 306.021 897.286 305.728C899.158 305.47 900.608 304.959 901.551 304.147C902.493 303.334 902.878 302.303 902.79 301.106C902.618 299.858 901.974 299.016 900.825 298.446Z" fill="black"/>
<path d="M896.196 313.898C894.441 313.768 893.091 313.536 892.195 313.117C891.773 312.865 891.35 312.613 891.197 312.293C890.96 311.922 890.807 311.602 890.755 311.113C890.669 310.489 890.701 310.05 890.768 309.746L892.286 309.506C892.219 309.809 892.271 310.299 892.358 310.923C892.341 311.142 892.46 311.327 892.579 311.513C892.697 311.698 892.866 311.799 893.12 311.95C894.691 312.772 897.763 312.999 902.25 312.581L903.718 312.425L903.745 310.265L904.723 310.161L905.649 320.906L904.671 321.011L904.311 319.307L892.722 320.303L892.677 322.109L891.749 322.128L891.294 316.359L892.222 316.339L892.565 318.262L904.154 317.266L903.856 313.538L902.169 313.678C899.892 314.039 897.952 314.028 896.196 313.898Z" fill="black"/>
<path d="M904.665 324.672L904.778 323.136L905.706 323.117L906.105 332.632L903.255 332.995L903.201 331.932L904.971 331.269L904.873 326.629L899.609 326.813L899.821 329.917L901.391 330.165L901.444 331.228L897.108 331.393L897.055 330.33L898.623 330.005L898.546 326.867L893.013 327.119L893.416 332.399L895.865 333.286L895.565 334.367L892.29 333.904L891.821 323.545L892.749 323.526L892.99 325.044L904.665 324.672Z" fill="black"/>
<path d="M905.233 340.244L905.072 337.056L901.105 336.409L901.152 335.177L906.114 335.5L906.131 347.193L901.086 347.394L901.083 346.246L905.013 345.611L905.121 342.354L893.344 342.321L893.149 344.953L892.221 344.973L892.217 337.869L893.145 337.85L893.321 340.245L905.233 340.244Z" fill="black"/>
<path d="M898.071 354.759L898.136 353.882C897.983 353.561 897.56 353.31 896.969 352.957C896.377 352.604 895.651 352.286 894.755 351.867C893.86 351.448 893.268 351.095 892.846 350.843C892.423 350.591 892.22 350.356 892.236 350.136L892.38 347.588L893.258 347.653L893.378 348.412C893.413 348.547 893.616 348.782 893.903 349.068C894.241 349.27 894.749 349.572 895.374 350.06C896.135 350.513 896.811 350.916 897.403 351.268C897.859 351.655 898.231 351.992 898.469 352.362C898.753 351.501 899.241 350.875 899.847 350.435C900.588 349.96 901.397 349.755 902.275 349.82C903.726 349.883 904.79 350.403 905.299 351.279C905.808 352.155 906.065 353.453 905.985 355.124C906.003 355.478 905.92 356.002 905.838 356.525C905.704 357.133 905.672 357.572 905.69 357.926L905.58 360.609L904.652 360.629L904.461 359.026L892.851 358.52L892.637 360.225L891.81 360.076L891.996 354.575L892.874 354.639L892.963 356.411L897.891 356.599L898.071 354.759ZM904.876 356.41C904.958 355.886 905.041 355.363 905.074 354.924C905.104 353.912 904.934 353.237 904.578 352.682C904.222 352.126 903.445 351.892 902.432 351.861C901.42 351.83 900.611 352.035 900.089 352.526C899.567 353.017 899.249 353.743 899.218 354.756C899.187 355.768 899.139 356.427 899.207 356.696L904.928 356.899L904.876 356.41Z" fill="black"/>
<path d="M904.131 367.076L904.324 363.869L900.423 362.919L900.555 361.737L905.484 362.499L904.539 374.077L899.527 373.839L899.659 372.657L903.606 372.376L904.019 369.185L892.272 368.14L891.858 370.756L890.98 370.691L891.55 363.586L892.428 363.651L892.468 366.081L904.131 367.076Z" fill="black"/>
<path d="M890.37 381.323C891.093 380.494 892.07 379.816 893.149 379.543C894.278 379.186 895.561 379.148 896.961 379.296C898.312 379.528 899.562 379.929 900.475 380.703C901.439 381.392 902.117 382.369 902.609 383.464C903.102 384.559 903.19 385.757 903.008 387.023C902.892 387.985 902.592 389.066 902.056 390.35L901.838 390.907L898.58 390.225L898.761 388.959L901.157 388.783C901.342 388.665 901.544 388.326 901.661 387.938C901.778 387.55 901.995 386.992 901.994 386.418C902.093 385.676 901.972 384.917 901.582 384.226C901.192 383.535 900.617 382.963 899.772 382.46C898.927 381.956 897.93 381.706 896.715 381.439C895.533 381.308 894.521 381.277 893.492 381.466C892.463 381.654 891.688 381.994 891.032 382.519C890.375 383.044 890.006 383.855 889.857 384.682C889.808 385.34 889.725 385.864 889.828 386.268C889.846 386.623 889.998 386.943 890.151 387.263L891.841 388.27L891.491 389.436L888.906 388.583C888.923 388.363 888.955 387.925 888.819 387.385C888.766 386.896 888.664 386.491 888.697 386.052C888.729 385.614 888.677 385.124 888.81 384.517C889.161 383.351 889.597 382.236 890.37 381.323Z" fill="black"/>
<path d="M901.016 398.435L900.105 398.235L900.2 396.345L890.932 394.601L892.861 396.552L898.381 403.049L898.904 403.132L899.422 401.494L900.334 401.694L899.387 406.742L898.475 406.542L898.539 405.091L887.092 402.964L886.625 404.518L885.713 404.318L886.71 399.186L887.622 399.386L887.542 401.056L896.895 402.851L895 401.034L889.447 394.403L888.839 394.269L888.32 395.908L887.409 395.708L888.406 390.576L889.318 390.775L889.204 392.311L900.65 394.437L901.152 393.019L902.064 393.218L901.016 398.435Z" fill="black"/>
<path d="M896.721 418.324L891.943 417.309L892.21 416.093L896.024 416.42L897.109 412.485L885.661 409.785L884.725 412.893L883.814 412.693L885.446 405.534L886.358 405.734L886.077 407.742L897.356 410.341L898.025 408.45L898.937 408.65L896.721 418.324Z" fill="black"/>
<path d="M894.789 421.182L895.376 419.813L896.237 420.097L894.817 424.978L893.956 424.694L894.204 423.124L889.408 421.754L887.571 428.104L892.367 429.473L892.953 428.105L893.815 428.389L892.445 433.185L891.584 432.901L891.782 431.415L880.586 428.293L879.999 429.661L879.138 429.377L880.507 424.581L881.369 424.865L881.12 426.435L886.305 427.922L888.142 421.572L882.958 420.086L882.321 421.539L881.459 421.254L882.795 416.323L883.656 416.608L883.458 418.093L894.789 421.182Z" fill="black"/>
<path d="M890.642 439.67L890.057 441.612L876.407 441.837L875.887 442.902L875.026 442.618L876.564 437.922L877.426 438.207L877.093 439.726L880.046 439.768L881.752 434.6L879.452 432.886L878.815 434.339L877.954 434.054L879.325 429.832L880.186 430.116L879.97 431.248L890.642 439.67ZM887.403 439.915L889.074 439.995L887.603 439.004L882.496 435.273L880.974 439.749L887.403 439.915Z" fill="black"/>
<path d="M877.997 448.97C876.476 448.063 875.428 447.324 874.784 446.482C874.462 446.061 874.225 445.691 874.207 445.337C874.104 444.932 874.221 444.543 874.338 444.155C874.556 443.598 874.673 443.209 874.909 443.006L876.378 443.424C876.227 443.677 876.059 444.15 875.842 444.707C875.741 444.876 875.725 445.096 875.793 445.366C875.777 445.585 875.895 445.77 876.099 446.006C877.098 447.403 879.853 448.931 884.059 450.522L885.478 451.024L886.417 449.064L887.278 449.348L883.444 459.432L882.583 459.148L883.016 457.459L872.205 453.307L871.333 454.963L870.471 454.678L872.548 449.273L873.409 449.557L872.875 451.415L883.686 455.568L885.008 452.004L883.421 451.401C881.275 450.58 879.484 449.742 877.997 448.97Z" fill="black"/>
<path d="M875.242 464.738C874.656 466.106 873.832 467.104 872.787 467.512C871.827 467.97 870.73 467.889 869.53 467.403C868.246 466.867 867.434 465.925 867.076 464.795C866.718 463.666 866.9 462.4 867.487 461.031C867.588 460.862 867.688 460.693 867.705 460.474C867.721 460.255 867.906 460.136 868.057 459.882C868.41 459.291 868.678 458.649 868.98 458.142L870.036 455.793L870.847 456.162L870.379 457.716L881.057 462.477L881.948 461.175L882.759 461.544L880.545 466.41L879.734 466.041L880.134 464.217L876.164 462.423L875.242 464.738ZM869.003 460.217C868.902 460.386 868.701 460.724 868.584 461.113C868.114 462.093 868.1 462.886 868.439 463.661C868.779 464.436 869.354 465.008 870.385 465.393C871.28 465.812 872.158 465.877 872.798 465.572C873.523 465.316 874.011 464.691 874.48 463.711L875.268 462.004L869.456 459.456C869.255 459.794 869.104 460.048 869.003 460.217ZM875.432 477.679L874.621 477.31L875.139 475.672L864.546 470.961L863.639 472.483L862.828 472.114L865.007 467.113L865.818 467.482L865.3 469.12L875.893 473.83L876.8 472.309L877.611 472.678L875.432 477.679Z" fill="black"/>
<path d="M870.492 484.814L871.417 483.647L872.178 484.1L869.727 488.596L868.967 488.142L869.519 486.639L865.108 484.239L861.987 490.052L866.398 492.452L867.322 491.285L868.083 491.739L865.683 496.15L864.922 495.696L865.424 494.278L855.149 488.841L854.309 490.058L853.549 489.605L855.949 485.194L856.709 485.647L856.207 487.066L861.007 489.583L864.128 483.769L859.329 481.252L858.388 482.639L857.627 482.185L860.078 477.69L860.838 478.143L860.336 479.562L870.492 484.814Z" fill="black"/>
<path d="M862.527 501.828L861.469 503.603L848.065 501.111L847.291 502.025L846.531 501.571L848.965 497.295L849.725 497.749L849.088 499.202L851.908 499.851L854.594 495.153L852.631 493.066L851.656 494.318L850.895 493.864L853.077 490.011L853.838 490.464L853.403 491.579L862.527 501.828ZM859.387 501.331L861.076 501.765L859.841 500.571L855.592 495.977L853.259 500.084L859.387 501.331Z" fill="black"/>
<path d="M853.15 514.679L854.545 513.106L855.256 513.644L852.484 517.718L844.073 515.111L841.793 514.324L843.469 516.125L848.956 523.061L846.184 527.135L845.473 526.597L846.447 524.772L835.987 519.454L834.927 520.655L834.217 520.117L837.241 515.62L837.951 516.158L837.179 517.645L844.599 521.724L847.826 523.418L846.048 521.213L839.765 513.116L840.454 512.152L849.573 514.724L853.153 515.827L850.328 513.456L843.799 508.076L842.589 509.53L841.879 508.992L844.6 505.002L845.311 505.54L844.589 506.943L853.15 514.679Z" fill="black"/>
<path d="M841.83 532.902L840.604 534.576L827.633 530.395L826.825 531.174L826.115 530.636L829.141 526.712L829.851 527.25L829.045 528.603L831.798 529.556L835.076 525.21L833.398 522.836L832.254 523.987L831.544 523.449L834.233 519.898L834.943 520.436L834.424 521.5L841.83 532.902ZM838.723 531.966L840.311 532.568L839.261 531.255L835.669 526.137L832.828 529.941L838.723 531.966Z" fill="black"/>
<path d="M834.495 540.212L835.623 539.281L836.333 539.819L834.736 541.73C834.399 542.102 834.198 542.44 833.912 542.728C833.475 543.269 833.173 543.776 832.786 544.233C831.626 545.603 830.598 546.365 829.57 546.554C828.591 546.658 827.595 546.408 826.513 545.534C825.768 544.861 825.243 544.204 824.954 543.345C824.665 542.485 824.679 541.692 824.879 540.78C825.079 539.869 825.583 539.023 826.255 538.279C826.541 537.991 826.692 537.738 826.978 537.45C827.264 537.162 827.365 536.993 827.5 536.959L824.337 534.387L822.571 536.198L821.861 535.66L825.778 531.008L826.489 531.546L825.598 532.848L834.495 540.212ZM827 538.952C826.327 539.696 826.093 540.473 826.113 541.401C826.132 542.329 826.691 543.12 827.774 543.995C828.603 544.718 829.38 544.952 830.004 544.865C830.762 544.745 831.419 544.22 832.142 543.391C832.428 543.104 832.63 542.766 832.882 542.343C833.033 542.089 833.133 541.92 833.184 541.836L828.025 537.616C827.874 537.869 827.487 538.326 827 538.952Z" fill="black"/>
<path d="M816.718 542.559C817.797 542.286 818.944 542.282 820.025 542.583C821.19 542.934 822.289 543.589 823.321 544.547C824.353 545.506 825.115 546.533 825.473 547.663C825.915 548.843 825.918 549.99 825.702 551.121C825.486 552.252 824.966 553.317 824.058 554.264C823.385 555.009 822.493 555.737 821.416 556.584L820.944 556.99L818.558 554.652L819.332 553.738L821.445 554.997C821.664 555.014 821.984 554.861 822.355 554.624C822.725 554.386 823.062 554.014 823.533 553.608C824.105 553.032 824.373 552.39 824.438 551.513C824.537 550.77 824.332 549.961 823.958 549.051C823.534 548.225 822.89 547.383 821.943 546.475C821.029 545.702 820.15 545.063 819.255 544.644C818.359 544.224 817.447 544.025 816.554 544.179C815.71 544.249 815.019 544.639 814.347 545.384C813.91 545.925 813.573 546.297 813.456 546.685C813.255 547.023 813.188 547.327 813.206 547.682L814.089 549.468L813.197 550.196L811.503 548.041C811.654 547.787 811.856 547.449 812.107 547.027C812.359 546.604 812.476 546.216 812.728 545.793C812.93 545.455 813.316 544.999 813.703 544.542C814.611 543.594 815.588 542.916 816.718 542.559Z" fill="black"/>
<path d="M809.59 569.121L808.981 568.414L810.191 566.96L803.676 560.213L804.139 562.894L804.788 571.413L805.16 571.749L806.558 570.75L807.167 571.457L803.466 574.977L802.856 574.27L803.781 573.103L795.708 564.741L794.445 565.707L793.785 565.084L797.537 561.479L798.197 562.102L797.087 563.387L803.637 570.269L803.073 567.757L802.474 559.153L801.984 558.631L800.536 559.716L799.876 559.093L803.678 555.404L804.338 556.026L803.363 557.278L811.436 565.64L812.648 564.759L813.258 565.466L809.59 569.121Z" fill="black"/>
<path d="M800.234 577.518C799.847 577.974 799.595 578.397 799.309 578.685C799.023 578.972 798.737 579.26 798.501 579.463C797.323 580.479 796.262 581.106 795.284 581.21C794.305 581.315 793.444 581.03 792.75 580.273C792.056 579.516 791.851 578.706 791.916 577.829C791.981 576.951 792.299 576.225 792.888 575.43C791.995 576.158 791.085 576.532 790.208 576.467C789.33 576.402 788.604 576.084 787.994 575.377C787.097 574.384 786.689 573.339 786.905 572.208C787.071 571.161 787.776 569.978 789.19 568.759C789.711 568.268 790.267 567.912 790.823 567.556C791.328 567.285 791.783 567.098 792.103 566.945C792.424 566.792 792.609 566.674 792.693 566.724L794.574 569.334L793.867 569.943L791.905 568.43C791.231 568.601 790.54 568.991 789.648 569.719C788.992 570.244 788.724 570.886 788.675 571.545C788.626 572.203 789.016 572.893 789.71 573.651C790.201 574.172 790.793 574.525 791.535 574.624C792.278 574.723 793.053 574.383 793.811 573.689L794.803 572.792L795.497 573.549L794.74 574.243C794.319 574.565 794.067 574.988 793.816 575.41C793.648 575.883 793.565 576.407 793.617 576.896C793.669 577.385 793.941 577.89 794.347 578.362C794.872 579.018 795.514 579.286 796.088 579.285C796.662 579.283 797.302 578.977 797.958 578.452C798.379 578.13 798.716 577.758 798.833 577.37C799.034 577.032 799.101 576.728 799.032 576.458L798.134 574.892L799.026 574.163L801.039 576.165C800.822 576.723 800.536 577.011 800.234 577.518Z" fill="black"/>
<path d="M787.287 587.325L788.668 586.545L789.278 587.252L787.308 588.827C786.938 589.064 786.601 589.436 786.08 589.927C785.608 590.334 785.322 590.621 785.087 590.824C783.774 591.874 782.628 592.451 781.7 592.471C780.772 592.491 779.961 592.122 779.402 591.33C778.877 590.674 778.537 589.899 778.602 589.021C778.617 588.228 778.935 587.502 779.473 586.791C778.581 587.519 777.671 587.893 776.743 587.913C775.865 587.848 775.054 587.479 774.495 586.688C773.733 585.661 773.46 584.582 773.676 583.45C773.892 582.319 774.782 581.018 776.415 579.815C776.786 579.577 777.072 579.29 777.442 579.052C778.234 578.493 778.705 578.087 778.84 578.053L780.81 576.478L781.419 577.185L780.325 578.251L787.287 587.325ZM776.856 580.421C775.829 581.183 775.325 582.028 775.142 582.721C774.958 583.413 775.247 584.273 775.857 584.98C776.416 585.771 777.092 586.174 777.75 586.223C778.408 586.271 779.184 585.932 780.025 585.288C781.052 584.526 781.624 583.95 781.86 583.747L778.388 579.387C778.253 579.421 777.698 579.777 776.856 580.421ZM781.797 585.198L780.955 585.842C780.299 586.367 779.946 586.959 779.897 587.617C779.849 588.275 780.104 589 780.629 589.656C781.154 590.313 781.745 590.665 782.353 590.799C782.927 590.797 783.652 590.542 784.544 589.814C784.914 589.576 785.251 589.204 785.537 588.916L785.823 588.629L782.639 584.555C782.538 584.724 782.218 584.877 781.797 585.198Z" fill="black"/>
<path d="M775.102 598.159L773.469 599.362L762.226 591.515L761.215 592.058L760.656 591.267L764.663 588.387L765.222 589.178L764.044 590.194L766.344 591.908L770.772 588.706L769.87 585.992L768.488 586.772L767.929 585.981L771.516 583.423L772.075 584.214L771.217 585.077L775.102 598.159ZM772.414 596.328L773.75 597.353L773.121 595.719L771.18 589.751L767.358 592.513L772.414 596.328Z" fill="black"/>
<path d="M758.368 593.568C759.515 593.565 760.596 593.866 761.61 594.47C762.624 595.075 763.521 596.067 764.318 597.229C765.114 598.391 765.556 599.571 765.644 600.769C765.732 601.967 765.516 603.098 764.996 604.162C764.476 605.227 763.618 606.09 762.641 606.768C761.85 607.327 760.755 607.819 759.524 608.346L758.935 608.567L757.255 605.619L758.317 604.992L760.043 606.708C760.262 606.724 760.616 606.706 761.071 606.519C761.476 606.417 761.982 606.145 762.453 605.739C763.143 605.349 763.631 604.723 763.865 603.946C764.183 603.22 764.198 602.427 763.959 601.482C763.72 600.538 763.396 599.544 762.634 598.517C761.956 597.54 761.313 596.698 760.518 596.11C759.723 595.522 758.912 595.153 758.085 595.003C757.258 594.854 756.448 595.059 755.657 595.618C755.101 595.974 754.68 596.296 754.479 596.634C754.193 596.921 754.126 597.225 753.975 597.479L754.318 599.401L753.223 599.894L752.17 597.434C752.355 597.315 752.641 597.027 753.028 596.571C753.364 596.198 753.65 595.911 753.936 595.623C754.222 595.335 754.643 595.013 755.199 594.658C756.04 594.014 757.22 593.572 758.368 593.568Z" fill="black"/>
<path d="M749.174 611.683C749.177 612.831 748.927 613.827 748.423 614.672C747.92 615.517 747.247 616.262 746.287 616.72C745.225 617.347 744.146 617.62 743.134 617.59C742.121 617.559 741.091 617.174 740.212 616.535C739.332 615.897 738.52 614.954 737.808 613.843C737.062 612.596 736.586 611.281 736.548 609.999C736.46 608.801 736.592 607.62 737.146 606.69C737.615 605.71 738.423 604.932 739.349 604.338C740.41 603.711 741.49 603.438 742.552 603.384C743.565 603.415 744.595 603.8 745.475 604.439C746.354 605.077 747.166 606.02 747.878 607.131L750.506 605.605L747.725 600.855L746.225 601.45L745.801 600.624L750.231 597.996L750.705 598.737L749.443 599.703L755.276 609.708L756.641 609.147L757.066 609.973L752.686 612.517L752.262 611.691L753.525 610.726L750.981 606.346L748.353 607.872C748.948 609.372 749.171 610.536 749.174 611.683ZM747.575 613.021C747.622 611.789 747.162 610.255 746.144 608.503C745.246 606.937 744.179 605.843 743.03 605.273C741.881 604.702 740.734 604.706 739.673 605.333C738.612 605.96 738.108 606.806 738.061 608.037C738.014 609.269 738.474 610.803 739.576 612.606C740.475 614.172 741.456 615.215 742.555 615.87C743.654 616.525 744.717 616.471 745.778 615.844C746.839 615.217 747.393 614.287 747.575 613.021Z" fill="black"/>
<path d="M728.655 617.092C727.929 616.774 726.999 616.22 725.9 615.565C725.14 615.111 724.548 614.759 724.126 614.507C723.788 614.305 723.484 614.239 723.214 614.307L722.455 614.427L722.031 613.602L724.052 612.516C724.322 612.448 724.676 612.43 725.268 612.782C725.775 613.085 726.536 613.538 727.55 614.143C728.598 614.882 729.443 615.386 730.17 615.704C730.761 616.057 731.285 616.14 731.655 615.902L732.666 615.359L730.239 610.591L728.655 611.136L728.23 610.31L732.813 608.002L733.237 608.828L731.941 609.658L737.218 620.02L738.668 619.509L739.092 620.335L734.644 622.609L734.22 621.783L735.483 620.818L733.056 616.05L731.59 616.78L730.664 623.329L732.114 622.819L732.538 623.644L728.411 625.766L727.986 624.94L729.199 624.059L730.31 617.391C730.074 617.594 729.382 617.411 728.655 617.092Z" fill="black"/>
<path d="M719.405 615.702C720.451 615.867 721.431 616.337 722.21 617.145C723.123 617.918 723.751 618.979 724.362 620.26C724.973 621.54 725.23 622.839 725.183 624.071C725.136 625.303 724.835 626.383 724.197 627.263C723.558 628.142 722.75 628.92 721.655 629.413C719.92 630.211 718.283 630.267 716.83 629.63C715.377 628.993 714.243 627.629 713.241 625.658C712.63 624.377 712.373 623.079 712.42 621.847C712.467 620.615 712.768 619.534 713.457 618.571C714.061 617.557 714.903 616.913 715.998 616.42C717.245 615.674 718.358 615.536 719.405 615.702ZM723.382 625.746C723.564 624.48 723.239 622.912 722.357 621.126C721.558 619.391 720.627 618.263 719.579 617.524C718.53 616.784 717.433 616.703 716.338 617.196C715.243 617.688 714.604 618.567 714.422 619.833C714.24 621.099 714.566 622.668 715.398 624.538C716.196 626.274 717.127 627.402 718.176 628.141C719.274 628.796 720.371 628.877 721.467 628.384C722.562 627.892 723.201 627.012 723.382 625.746Z" fill="black"/>
<path d="M712.602 631.92L714.085 631.544L714.459 632.454L712.184 633.389C711.779 633.491 711.274 633.763 710.718 634.119C710.213 634.39 709.758 634.577 709.488 634.646C707.853 635.275 706.69 635.497 705.778 635.298C704.866 635.098 704.206 634.475 703.832 633.565C703.493 632.79 703.423 631.947 703.657 631.17C703.891 630.393 704.378 629.767 705.119 629.293C704.024 629.785 703.045 629.889 702.184 629.605C701.323 629.321 700.663 628.698 700.289 627.788C699.847 626.608 699.843 625.461 700.363 624.397C700.883 623.332 702.146 622.366 703.966 621.619C704.421 621.432 704.826 621.329 705.146 621.177C706.056 620.803 706.596 620.666 706.781 620.548L709.056 619.613L709.345 620.473L707.964 621.253L712.602 631.92ZM704.475 622.495C703.295 622.937 702.588 623.546 702.27 624.273C701.951 624.999 701.937 625.792 702.311 626.702C702.684 627.612 703.175 628.134 703.817 628.402C704.459 628.67 705.218 628.55 706.263 628.142C707.443 627.7 708.218 627.36 708.454 627.157L706.363 622.017C706.025 621.815 705.435 622.036 704.475 622.495ZM707.917 628.441L707.007 628.815C706.232 629.154 705.711 629.645 705.443 630.287C705.174 630.929 705.21 631.638 705.635 632.463C705.974 633.238 706.465 633.76 707.023 633.978C707.58 634.196 708.339 634.075 709.384 633.667C709.839 633.48 710.209 633.243 710.664 633.056L710.985 632.903L709.047 628.083C708.693 628.101 708.372 628.254 707.917 628.441Z" fill="black"/>
<g style="mix-blend-mode:overlay">
<circle cx="440.994" cy="68.7296" r="2" transform="rotate(15.7962 440.994 68.7296)" fill="black"/>
</g>
<g style="mix-blend-mode:overlay">
<circle cx="837.194" cy="154.18" r="2" transform="rotate(15.7962 837.194 154.18)" fill="black"/>
</g>
</g>
<defs>
<filter id="filter0_d_31_9" x="274.981" y="400.617" width="23.2122" height="21.2485" filterUnits="userSpaceOnUse" color-interpolation-filters="sRGB" >
<feFlood flood-opacity="0" result="BackgroundImageFix"/>
<feColorMatrix in="SourceAlpha" type="matrix" values="0 0 0 0 0 0 0 0 0 0 0 0 0 0 0 0 0 0 127 0" result="hardAlpha"/>
<feOffset dy="4"/>
<feGaussianBlur stdDeviation="2"/>
<feComposite in2="hardAlpha" operator="out"/>
<feColorMatrix type="matrix" values="0 0 0 0 0 0 0 0 0 0 0 0 0 0 0 0 0 0 0.25 0"/>
<feBlend mode="normal" in2="BackgroundImageFix" result="effect1_dropShadow_31_9" />
<feBlend mode="normal" in="SourceGraphic" in2="effect1_dropShadow_31_9" result="shape"/>
</filter>
</defs>
</svg>
